<?xml version="1.0" standalone="no"?>
<!DOCTYPE svg PUBLIC "-//W3C//DTD SVG 20010904//EN"
 "http://www.w3.org/TR/2001/REC-SVG-20010904/DTD/svg10.dtd">
<svg version="1.0" xmlns="http://www.w3.org/2000/svg"
 width="1280.000000pt" height="1280.000000pt" viewBox="0 0 1280.000000 1280.000000"
 preserveAspectRatio="xMidYMid meet">
<metadata>
Created by potrace 1.15, written by Peter Selinger 2001-2017
</metadata>
<g transform="translate(0.000000,1280.000000) scale(0.100000,-0.100000)"
fill="#000000" stroke="none">
<path d="M4512 12779 c-24 -12 -50 -32 -58 -45 -14 -20 -13 -26 5 -62 15 -30
55 -66 153 -139 171 -128 383 -302 475 -391 54 -51 80 -86 102 -133 31 -70 71
-230 71 -285 0 -49 -31 -103 -102 -182 -90 -98 -289 -370 -355 -483 -31 -55
-65 -102 -76 -105 -42 -13 -125 73 -187 195 -22 44 -22 45 -4 110 23 87 29
164 14 191 -6 12 -35 33 -64 46 -63 29 -75 41 -115 121 -55 110 -59 143 -49
384 11 251 10 253 -89 415 -109 179 -116 188 -163 212 -119 62 -328 -15 -390
-143 -31 -65 -24 -146 29 -325 46 -155 64 -191 117 -230 18 -14 94 -78 169
-144 132 -115 137 -121 180 -210 25 -51 45 -97 45 -103 0 -6 -13 -40 -30 -75
-16 -34 -30 -74 -30 -88 0 -45 34 -85 101 -119 115 -59 128 -81 139 -239 4
-64 6 -122 3 -129 -8 -21 -47 -16 -235 32 -218 56 -346 75 -508 75 -152 0
-162 5 -242 116 -119 166 -132 214 -132 489 -1 197 0 203 42 406 23 113 42
219 42 236 0 73 -44 118 -94 95 -37 -17 -225 -182 -281 -248 -157 -182 -284
-356 -385 -523 -85 -142 -338 -655 -379 -768 -18 -50 -41 -99 -50 -107 -9 -8
-46 -26 -81 -40 -582 -221 -1113 -551 -1439 -891 -137 -144 -152 -175 -106
-220 40 -41 140 -34 375 28 52 14 140 28 195 32 112 7 401 -9 455 -26 56 -18
227 -128 260 -167 36 -44 50 -106 43 -198 -8 -108 13 -259 68 -474 27 -107 49
-204 49 -216 0 -46 -26 -57 -115 -51 -148 12 -191 37 -271 158 -46 69 -80 99
-111 99 -10 0 -47 -14 -83 -31 -75 -35 -89 -34 -197 12 -63 28 -78 39 -121 98
-28 36 -101 118 -164 182 -135 139 -164 155 -379 205 -159 37 -183 37 -250 3
-110 -56 -180 -245 -135 -364 24 -62 79 -106 247 -200 l144 -80 150 2 c83 1
205 7 271 13 l121 12 39 -26 c21 -14 52 -26 69 -26 41 0 60 -17 75 -65 21 -67
52 -113 86 -130 42 -20 52 -19 160 6 l90 22 75 -39 c116 -61 182 -140 149
-179 -6 -8 -60 -42 -118 -76 -145 -84 -213 -133 -372 -269 -215 -184 -195
-170 -253 -170 -210 2 -372 85 -574 293 -106 110 -162 183 -246 325 -69 116
-144 195 -180 190 -27 -4 -69 -84 -93 -178 -21 -81 -14 -222 22 -459 62 -414
159 -753 330 -1156 35 -82 64 -161 64 -174 0 -13 -31 -96 -69 -185 -86 -200
-188 -502 -240 -706 -63 -248 -121 -633 -121 -802 0 -176 23 -251 84 -273 51
-18 108 37 198 190 23 39 59 99 81 135 53 85 333 364 406 403 51 28 262 87
311 87 44 -1 108 -38 192 -111 118 -104 347 -272 465 -341 121 -70 130 -80
117 -116 -11 -31 -101 -107 -176 -147 -55 -30 -63 -30 -198 5 -59 15 -122 5
-148 -23 -12 -12 -27 -40 -34 -61 -17 -50 -63 -75 -213 -113 -102 -26 -125
-28 -315 -28 l-205 -1 -145 -78 c-176 -96 -203 -116 -238 -175 -23 -39 -27
-57 -27 -117 1 -59 6 -82 33 -137 34 -68 91 -126 145 -146 50 -19 129 -12 260
24 216 59 222 64 401 269 154 176 156 177 243 215 86 37 101 38 178 6 33 -13
72 -25 86 -25 44 0 89 40 128 114 20 38 48 79 63 89 34 25 97 36 214 36 71 1
93 -2 97 -13 3 -8 -6 -57 -20 -108 -73 -267 -94 -386 -99 -568 -3 -96 -7 -184
-9 -196 -5 -22 -153 -138 -223 -173 -74 -38 -149 -49 -357 -56 -190 -5 -205
-4 -305 19 -58 14 -165 37 -237 53 -131 27 -133 28 -167 9 -44 -23 -58 -54
-45 -99 23 -83 360 -385 639 -572 169 -113 277 -169 656 -341 178 -81 332
-156 343 -168 10 -12 42 -79 71 -151 73 -182 253 -545 348 -702 148 -243 278
-414 478 -627 116 -124 169 -160 226 -154 26 2 37 10 53 39 l19 37 -28 133
c-64 311 -68 339 -63 559 3 189 5 210 28 271 27 69 93 175 154 246 l37 43 112
0 c184 0 400 34 636 99 156 44 181 23 155 -133 -7 -44 -18 -92 -23 -106 -13
-33 -89 -103 -140 -129 -49 -25 -92 -75 -92 -107 0 -14 14 -52 31 -86 36 -72
35 -83 -17 -197 -28 -62 -45 -86 -75 -106 -63 -41 -285 -243 -314 -284 -36
-53 -60 -119 -96 -272 -37 -154 -35 -201 8 -263 30 -43 114 -100 173 -116 163
-47 245 -2 358 198 34 59 73 134 88 166 l26 58 -17 183 c-9 100 -15 223 -14
272 4 77 8 97 39 158 35 69 36 70 94 87 66 19 112 57 121 100 4 17 -2 67 -16
122 -27 113 -24 124 62 230 74 92 102 118 121 111 8 -3 37 -45 63 -93 103
-185 170 -276 349 -476 140 -157 131 -131 106 -281 -12 -70 -28 -145 -35 -166
-24 -66 -78 -138 -210 -276 -117 -122 -140 -141 -330 -267 -112 -75 -211 -146
-219 -158 -23 -32 -20 -56 12 -87 58 -59 247 -65 582 -21 424 56 814 168 1246
356 56 24 111 44 123 44 11 0 83 -26 158 -59 425 -181 809 -288 1228 -341 307
-39 486 -37 554 7 21 13 23 21 18 66 -7 73 -37 99 -290 250 -48 29 -115 76
-148 106 -85 75 -276 296 -304 351 -24 48 -65 229 -65 289 0 45 15 66 115 166
107 106 179 204 305 415 66 110 112 176 123 178 24 5 96 -69 155 -157 47 -72
52 -103 25 -178 -9 -26 -17 -74 -17 -105 -1 -74 23 -101 116 -129 72 -21 88
-38 88 -95 0 -14 12 -41 27 -60 27 -36 27 -36 15 -122 -7 -48 -15 -157 -18
-242 -7 -186 -4 -199 93 -377 103 -190 160 -237 283 -237 86 0 175 39 230 101
50 57 63 99 58 181 -6 92 -74 313 -113 371 -17 25 -108 112 -201 193 -146 127
-170 151 -175 182 -3 19 -17 52 -31 73 -40 62 -40 70 -7 139 55 113 34 162
-96 233 -92 49 -102 71 -111 232 -6 108 -5 127 9 132 8 3 93 -14 188 -38 197
-49 283 -61 523 -75 108 -6 174 -14 184 -22 8 -7 48 -60 88 -117 88 -123 114
-195 114 -310 0 -42 5 -115 11 -161 13 -105 2 -197 -48 -400 -57 -235 -47
-330 36 -338 46 -5 89 28 229 172 305 317 604 799 802 1296 34 85 68 162 76
172 9 9 30 22 47 29 672 269 1125 545 1474 901 142 144 156 176 104 229 -40
39 -61 38 -309 -17 l-207 -47 -220 6 c-154 4 -235 11 -270 21 -62 19 -197 101
-261 160 l-49 44 -7 178 c-7 197 -18 266 -84 523 -27 104 -41 178 -35 184 28
28 260 5 311 -32 14 -9 39 -44 57 -77 34 -64 104 -134 135 -134 10 0 50 16 88
35 38 19 74 35 80 35 6 0 29 -14 52 -30 22 -17 50 -30 62 -30 34 0 70 -30 149
-125 136 -164 266 -274 357 -303 19 -6 78 -25 130 -42 133 -42 207 -42 280 3
58 34 110 106 130 177 27 96 -3 206 -72 266 -42 36 -255 156 -312 174 -48 15
-301 15 -431 0 -89 -11 -91 -11 -190 24 l-99 34 -17 49 c-26 77 -47 112 -79
128 -39 20 -59 19 -163 -7 l-88 -23 -75 40 c-85 45 -164 121 -164 158 0 20 20
36 125 96 150 87 235 149 425 315 93 80 156 128 175 131 50 10 289 -39 340
-70 75 -43 262 -211 338 -304 74 -88 103 -131 177 -260 24 -41 66 -99 95 -128
43 -45 58 -54 81 -51 23 2 34 13 54 53 24 49 25 55 24 270 -1 245 -14 360 -70
621 -59 279 -156 579 -270 842 -31 70 -60 140 -64 155 -10 32 -13 24 93 278
156 375 271 810 307 1165 7 60 10 195 8 301 -3 176 -5 194 -24 220 -58 77
-148 10 -259 -192 -62 -115 -125 -192 -278 -343 -168 -165 -207 -188 -390
-229 -163 -36 -166 -35 -301 95 -124 120 -212 184 -396 292 -157 92 -190 116
-190 141 0 32 78 107 148 141 75 37 149 42 259 19 57 -12 65 -11 95 6 27 15
37 32 55 87 12 37 27 74 33 81 6 8 34 18 61 24 27 6 63 21 79 32 31 24 24 24
245 -1 116 -12 271 -13 314 0 58 16 281 143 331 187 68 61 83 99 78 193 -6
103 -41 176 -110 230 -58 46 -114 64 -172 55 -62 -10 -302 -83 -344 -105 -49
-25 -86 -62 -232 -229 -118 -135 -125 -141 -214 -186 l-92 -46 -58 27 c-126
57 -179 41 -240 -76 -48 -91 -74 -108 -194 -128 -105 -16 -169 -11 -179 15 -4
9 12 93 36 187 57 236 60 256 71 469 6 112 15 200 23 215 13 28 109 105 199
159 82 50 143 61 380 69 209 6 215 6 322 -20 244 -61 347 -76 391 -60 8 4 23
20 31 36 25 48 4 89 -105 201 -172 177 -366 333 -596 477 -156 98 -706 374
-825 414 -47 16 -95 38 -107 48 -11 11 -47 83 -78 161 -72 179 -243 528 -330
672 -182 301 -388 565 -571 730 -102 93 -121 102 -166 72 -53 -36 -55 -58 -23
-214 15 -76 35 -172 43 -213 11 -54 16 -139 16 -305 1 -223 0 -232 -25 -296
-61 -158 -151 -278 -225 -298 -22 -6 -96 -11 -166 -11 -148 0 -293 -23 -483
-75 -71 -20 -149 -39 -171 -42 -39 -5 -42 -4 -48 22 -8 33 -1 112 20 212 16
78 37 104 114 143 53 27 107 81 116 114 5 21 -1 43 -25 88 -45 89 -42 116 25
215 40 57 94 115 178 191 164 146 221 231 276 402 49 154 53 226 15 299 -46
92 -151 151 -267 151 -115 0 -171 -44 -264 -204 -102 -178 -106 -191 -111
-356 -4 -107 -1 -169 11 -238 21 -119 20 -147 -4 -217 -27 -79 -51 -101 -131
-125 -107 -32 -127 -75 -94 -200 18 -66 19 -143 3 -173 -13 -25 -145 -179
-163 -189 -20 -12 -39 11 -115 142 -139 237 -223 352 -358 486 -39 39 -74 83
-78 98 -9 36 18 195 46 269 72 193 278 396 620 611 101 63 136 98 140 141 5
43 -2 55 -43 80 -42 24 -49 25 -220 25 -193 0 -397 -22 -626 -66 -198 -39
-290 -68 -681 -214 -195 -74 -368 -133 -385 -133 -16 1 -61 16 -100 33 -235
106 -536 210 -800 275 -308 76 -496 103 -765 111 -187 5 -197 5 -238 -17z
m363 1 c433 -37 903 -157 1338 -341 227 -97 160 -104 579 53 405 152 445 165
611 202 213 48 436 76 662 82 207 5 211 5 250 -18 29 -17 41 -31 43 -51 6 -49
-31 -89 -149 -162 -134 -83 -282 -191 -363 -266 -81 -74 -189 -217 -231 -303
-50 -105 -80 -289 -55 -335 5 -10 47 -56 92 -102 111 -113 192 -223 318 -433
64 -108 113 -179 125 -183 16 -5 36 12 98 78 79 85 116 144 117 188 0 13 -9
62 -21 109 -31 130 -17 160 92 192 79 24 106 52 134 139 18 57 17 110 -5 276
-13 95 -4 292 16 348 26 72 142 271 181 309 73 71 163 86 270 47 71 -27 143
-97 161 -155 20 -67 14 -115 -27 -248 -60 -191 -117 -273 -307 -437 -52 -45
-104 -98 -116 -118 -12 -20 -37 -56 -55 -80 -47 -63 -51 -100 -18 -164 44 -84
47 -102 21 -139 -12 -18 -52 -51 -89 -74 -37 -22 -77 -49 -88 -60 -35 -35 -74
-274 -53 -328 10 -26 61 -20 247 29 225 58 334 75 491 75 112 0 136 3 174 21
77 38 187 211 217 344 19 81 22 397 5 500 -6 38 -27 145 -47 238 -38 184 -37
201 11 233 17 10 35 14 51 10 35 -9 262 -238 369 -371 101 -127 246 -342 337
-500 84 -147 224 -437 294 -612 31 -78 67 -150 78 -161 12 -10 65 -34 117 -52
106 -38 582 -271 730 -358 291 -170 657 -464 754 -605 46 -66 47 -112 4 -136
-32 -18 -103 -9 -323 44 -77 18 -167 35 -200 39 -75 7 -437 -18 -488 -34 -48
-14 -237 -140 -270 -180 -28 -33 -32 -59 -42 -285 -7 -157 -23 -252 -77 -459
l-41 -159 23 -19 c43 -34 257 -14 318 31 15 11 45 52 67 93 31 57 49 77 78 92
38 18 40 18 95 -2 31 -10 71 -25 88 -32 28 -12 37 -10 120 31 97 48 113 62
264 238 56 65 122 134 148 154 61 46 283 117 392 124 72 5 77 4 125 -28 28
-19 64 -55 82 -82 58 -87 69 -222 22 -292 -29 -44 -136 -116 -277 -187 -96
-49 -110 -53 -185 -56 -71 -3 -289 15 -397 34 -28 4 -43 0 -74 -21 -21 -14
-58 -30 -82 -34 -60 -11 -71 -23 -94 -99 -11 -36 -28 -74 -37 -84 -20 -23 -83
-24 -165 -3 -54 14 -65 14 -121 0 -98 -25 -201 -94 -233 -157 -14 -26 -14 -32
0 -52 8 -13 75 -58 148 -101 211 -124 305 -192 429 -312 133 -128 147 -134
269 -114 114 20 222 57 287 100 80 54 320 301 375 386 25 39 63 102 86 141 46
79 123 170 152 179 30 9 56 -2 69 -31 18 -40 26 -343 12 -475 -46 -432 -173
-892 -370 -1337 -22 -51 -41 -102 -41 -112 0 -11 27 -84 61 -162 210 -490 318
-909 350 -1353 16 -231 0 -393 -43 -431 -18 -17 -20 -17 -52 0 -40 21 -87 81
-157 201 -58 100 -110 173 -178 254 -55 64 -259 243 -317 277 -44 26 -178 59
-285 70 -82 8 -92 3 -229 -116 -221 -194 -285 -240 -467 -345 -57 -32 -105
-67 -109 -77 -13 -41 55 -116 161 -177 80 -47 103 -49 213 -21 121 31 151 14
196 -111 20 -53 29 -65 52 -73 16 -4 54 -18 84 -30 61 -23 72 -24 366 -11 228
10 236 8 416 -92 142 -78 191 -127 209 -209 29 -127 -54 -284 -170 -323 -57
-19 -114 -13 -231 24 -61 19 -117 35 -125 35 -7 0 -46 22 -86 48 -77 51 -200
170 -291 283 -55 70 -93 99 -126 99 -10 0 -39 13 -63 30 -24 16 -52 30 -62 30
-10 0 -49 -16 -88 -35 -42 -21 -78 -34 -89 -30 -26 8 -91 83 -122 143 -15 28
-38 58 -51 66 -55 37 -284 60 -322 32 -21 -15 -20 -24 38 -251 54 -208 69
-305 73 -460 1 -77 3 -150 3 -162 1 -35 49 -82 157 -153 142 -94 160 -99 414
-111 l216 -11 230 51 c127 28 240 51 251 51 38 0 73 -38 73 -78 0 -33 -12 -48
-152 -187 -334 -331 -756 -594 -1328 -827 -80 -32 -153 -66 -162 -76 -9 -9
-45 -87 -79 -172 -153 -383 -361 -753 -598 -1065 -89 -117 -326 -364 -374
-390 -46 -24 -81 -15 -98 27 -20 48 -14 103 30 293 51 220 54 255 42 470 -13
240 -20 258 -159 454 -53 74 -85 91 -171 91 -78 0 -297 18 -386 31 -38 6 -139
28 -224 50 -156 41 -200 43 -202 11 -4 -41 3 -172 11 -226 11 -71 39 -105 120
-146 30 -15 66 -40 79 -54 34 -36 32 -100 -4 -162 -32 -55 -30 -80 15 -150 16
-26 30 -60 30 -74 0 -21 25 -47 128 -135 181 -156 231 -204 257 -250 29 -49
105 -314 105 -364 0 -97 -54 -175 -155 -223 -120 -57 -242 -32 -315 65 -52 69
-158 276 -170 332 -10 47 -3 244 16 447 6 62 5 69 -20 98 -17 21 -26 43 -26
66 0 57 -14 72 -92 95 -94 29 -108 44 -108 118 0 32 7 75 15 94 8 20 15 58 15
85 0 45 -6 58 -62 137 -72 101 -130 150 -159 135 -10 -6 -43 -54 -75 -108
-147 -254 -262 -412 -367 -508 -79 -73 -99 -104 -99 -155 1 -68 40 -246 67
-298 34 -66 249 -306 339 -379 42 -33 106 -77 143 -98 94 -50 193 -117 226
-152 21 -22 28 -40 30 -73 2 -39 -1 -45 -27 -57 -73 -36 -250 -35 -549 4 -408
52 -842 176 -1254 358 -45 20 -95 36 -112 36 -17 0 -107 -32 -199 -71 -472
-200 -928 -313 -1415 -350 -128 -10 -172 -10 -225 1 -80 15 -97 23 -118 55
-15 23 -15 27 0 50 9 13 110 88 225 165 194 129 218 149 327 265 141 150 186
211 212 290 28 82 57 280 46 305 -5 10 -65 82 -134 161 -162 184 -225 268
-301 403 -70 124 -95 156 -120 156 -20 0 -122 -112 -168 -184 -35 -57 -39 -96
-16 -172 8 -27 15 -70 15 -95 0 -61 -31 -93 -114 -117 -53 -16 -64 -23 -84
-58 -12 -21 -32 -70 -43 -108 -22 -68 -22 -69 -5 -270 9 -110 19 -217 22 -237
5 -30 -4 -54 -56 -155 -90 -173 -143 -249 -196 -280 -39 -23 -53 -26 -117 -22
-135 7 -251 84 -278 182 -10 36 -7 61 25 196 51 219 71 256 209 381 62 56 141
125 176 153 54 43 70 62 99 125 49 106 51 134 13 209 -17 34 -31 68 -31 76 0
23 49 75 89 96 21 10 60 39 88 64 41 37 53 56 66 103 23 83 31 173 18 206 -20
51 -47 52 -222 7 -241 -61 -371 -81 -543 -82 -142 -1 -149 -2 -177 -26 -50
-42 -156 -211 -184 -295 -24 -72 -26 -90 -27 -285 -2 -207 -2 -207 40 -409 46
-221 51 -277 25 -305 -43 -48 -113 -8 -256 144 -196 209 -344 407 -496 665
-89 151 -251 484 -321 658 -28 72 -61 140 -73 152 -12 12 -177 92 -365 178
-453 205 -612 297 -889 516 -145 115 -369 336 -379 374 -11 43 4 75 41 91 35
14 83 7 397 -66 102 -23 178 -27 378 -16 153 8 225 23 300 61 50 26 201 139
212 160 4 7 10 89 12 181 4 186 12 234 83 522 59 237 64 226 -97 217 -181 -11
-206 -24 -264 -134 -20 -39 -47 -77 -59 -86 -32 -22 -95 -18 -156 10 -63 30
-91 25 -202 -31 -59 -29 -83 -51 -192 -176 -134 -154 -189 -208 -235 -232 -40
-20 -273 -86 -331 -93 -101 -12 -187 42 -240 149 -26 51 -31 73 -31 132 0 126
31 159 260 282 l145 78 215 1 c200 1 222 3 313 27 135 37 199 73 208 116 4 18
17 44 30 58 19 20 32 24 83 24 34 0 79 -7 101 -15 68 -24 113 -19 178 20 77
46 139 99 161 136 16 27 16 32 3 52 -8 12 -42 38 -76 57 -142 80 -396 264
-526 381 -120 108 -164 116 -355 68 -122 -31 -164 -56 -292 -173 -180 -164
-234 -230 -354 -434 -66 -112 -122 -175 -157 -175 -61 0 -83 49 -92 199 -11
178 44 567 125 882 66 255 166 538 269 766 17 38 31 85 31 105 0 22 -21 86
-54 161 -162 376 -261 712 -325 1100 -41 248 -54 429 -36 513 15 73 50 161 71
178 31 26 113 -58 183 -185 138 -253 409 -513 605 -582 60 -22 225 -46 258
-39 18 4 92 60 181 137 199 170 247 206 400 296 147 87 166 106 143 149 -35
69 -188 173 -254 173 -16 0 -51 -7 -78 -15 -58 -17 -137 -19 -165 -4 -22 11
-69 102 -69 132 0 28 -37 57 -74 57 -19 0 -49 11 -70 25 -49 33 -80 40 -124
27 -21 -6 -127 -16 -236 -22 l-200 -11 -80 42 c-234 121 -295 165 -327 234
-67 145 60 375 209 375 48 0 267 -50 347 -80 52 -19 76 -38 182 -147 68 -68
143 -153 168 -188 42 -59 51 -66 131 -99 47 -20 99 -36 114 -36 15 0 57 14 93
31 60 28 69 29 94 17 15 -7 48 -43 73 -80 86 -126 118 -148 253 -168 85 -13
117 -9 141 16 24 24 19 75 -24 238 -56 216 -71 312 -71 461 0 202 -18 242
-143 323 -140 90 -168 100 -310 112 -256 20 -424 9 -580 -39 -39 -12 -114 -27
-168 -33 -86 -9 -100 -9 -123 6 -19 12 -25 25 -25 50 0 30 15 50 122 161 319
332 816 645 1373 865 61 24 121 51 135 61 18 12 39 51 69 131 53 135 295 624
376 758 158 262 373 529 538 668 122 103 132 108 162 88 40 -27 40 -65 -4
-287 -56 -287 -62 -347 -52 -524 13 -212 32 -264 157 -431 31 -40 66 -76 81
-82 16 -6 98 -13 183 -16 181 -6 260 -19 504 -81 98 -25 187 -43 197 -40 28 9
33 46 21 172 -13 143 -32 178 -123 224 -119 60 -135 105 -79 224 l30 63 -51
101 c-50 98 -54 102 -183 212 -251 215 -224 179 -284 381 -54 179 -59 216 -41
282 35 125 249 222 372 168 47 -21 66 -43 133 -154 19 -32 50 -84 69 -115 62
-100 66 -127 55 -366 -11 -237 -8 -263 55 -387 38 -75 48 -85 119 -120 63 -31
75 -58 57 -133 -38 -160 -38 -156 5 -236 44 -82 132 -171 168 -171 29 0 52 26
106 120 74 129 242 357 353 479 75 82 97 127 97 191 0 69 -44 241 -77 301 -46
86 -258 275 -581 518 -113 85 -152 127 -152 165 0 19 53 57 94 66 46 11 185
11 321 0z"/>
<path d="M4691 12656 c-14 -17 17 -44 119 -101 36 -20 88 -54 117 -76 75 -58
316 -319 351 -381 42 -72 80 -190 88 -271 12 -121 -20 -131 435 148 222 136
423 259 446 274 43 26 54 50 31 69 -7 5 -96 40 -198 77 -519 189 -676 230
-989 260 -203 20 -384 20 -400 1z m599 -39 c233 -41 312 -64 755 -224 217 -78
253 -96 225 -113 -354 -220 -863 -530 -870 -530 -5 0 -12 17 -15 38 -26 168
-54 255 -111 340 -45 69 -273 312 -338 361 -28 20 -83 56 -121 79 -39 22 -82
50 -95 62 l-25 21 225 -4 c182 -4 253 -10 370 -30z"/>
<path d="M7755 12663 c-336 -41 -674 -129 -1035 -270 -176 -68 -215 -93 -190
-117 8 -7 166 -106 350 -219 184 -112 376 -230 425 -261 49 -31 97 -56 107
-56 19 0 21 7 38 110 14 86 44 174 78 232 41 72 256 302 347 373 44 34 122 88
173 120 90 56 108 77 76 89 -16 6 -316 6 -369 -1z m279 -12 l99 -6 -136 -88
c-78 -52 -166 -119 -209 -161 -138 -136 -257 -274 -288 -336 -28 -55 -58 -166
-75 -272 -3 -21 -9 -38 -14 -38 -4 0 -88 50 -187 111 -98 61 -293 181 -431
266 -139 85 -253 161 -253 168 0 8 62 38 153 73 381 149 686 232 1017 276 116
15 176 17 324 7z"/>
<path d="M3865 12512 c-70 -33 -105 -127 -85 -232 5 -30 37 -111 70 -179 54
-109 70 -134 138 -201 79 -78 168 -143 186 -137 31 10 41 63 40 207 -1 116 -5
161 -22 225 -65 240 -204 374 -327 317z m137 -25 c135 -82 230 -375 198 -609
-6 -45 -14 -86 -16 -90 -10 -16 -33 -7 -95 41 -112 85 -163 148 -230 285 -53
107 -62 135 -67 195 -9 128 40 201 133 201 24 0 55 -9 77 -23z"/>
<path d="M8849 12516 c-53 -19 -104 -61 -138 -114 -46 -73 -112 -274 -118
-363 -6 -85 12 -239 32 -266 12 -17 15 -17 47 -1 57 28 162 123 216 194 97
129 142 252 142 389 0 81 -20 123 -72 155 -38 23 -59 24 -109 6z m117 -24 c55
-44 67 -125 38 -255 -34 -154 -133 -301 -278 -412 -73 -56 -79 -58 -91 -41
-17 23 -30 128 -29 231 1 66 9 103 43 205 49 146 93 219 158 260 55 35 125 40
159 12z"/>
<path d="M6315 12202 c-27 -10 -117 -61 -200 -113 -82 -53 -258 -160 -390
-238 -317 -189 -305 -179 -305 -244 0 -91 68 -393 140 -623 75 -240 100 -333
131 -482 35 -174 67 -262 107 -302 47 -46 562 -290 612 -290 21 0 102 33 219
89 102 49 197 92 211 96 51 15 142 69 170 102 56 63 81 130 121 322 21 102 64
265 94 361 53 170 104 366 161 618 35 154 32 162 -61 217 -38 23 -171 102
-295 175 -124 73 -276 166 -338 207 -62 40 -132 83 -155 95 -58 29 -157 34
-222 10z m209 -20 c25 -11 107 -61 183 -110 77 -49 259 -160 406 -247 147 -87
272 -167 278 -178 12 -21 10 -31 -83 -414 -26 -111 -68 -264 -93 -340 -54
-170 -69 -229 -105 -410 -49 -248 -91 -302 -300 -386 -47 -19 -150 -67 -229
-106 -79 -39 -155 -71 -169 -71 -14 0 -147 57 -296 127 -193 91 -281 137 -307
163 -43 42 -59 89 -118 350 -21 96 -73 283 -114 415 -98 311 -165 641 -139
682 4 6 132 86 286 178 153 91 340 205 415 253 74 48 158 95 186 105 61 21
134 17 199 -11z"/>
<path d="M3054 11918 c-167 -170 -287 -331 -428 -570 -72 -122 -232 -451 -285
-583 -56 -139 -57 -139 141 -92 84 21 310 74 503 120 266 63 351 87 353 99 2
8 -22 50 -52 92 -121 169 -138 234 -140 546 -1 233 -1 236 31 364 18 71 30
133 27 138 -12 20 -37 1 -150 -114z m111 -25 c-39 -163 -43 -209 -34 -428 7
-177 11 -212 33 -277 27 -82 66 -154 127 -235 21 -29 39 -54 39 -57 0 -8 -30
-15 -418 -107 -213 -50 -430 -102 -482 -114 -55 -13 -99 -19 -104 -14 -13 12
35 130 150 367 156 324 269 507 448 732 79 100 260 275 264 256 2 -8 -8 -64
-23 -123z"/>
<path d="M9612 12008 c3 -18 16 -87 29 -153 21 -105 24 -148 23 -335 0 -188
-3 -225 -22 -293 -28 -101 -71 -190 -129 -267 -39 -52 -44 -64 -32 -75 8 -7
136 -41 284 -75 149 -34 370 -87 493 -117 123 -30 230 -52 238 -49 8 3 14 14
14 25 0 21 -208 464 -296 631 -122 229 -280 446 -464 633 -111 114 -146 132
-138 75z m144 -101 c206 -213 343 -409 488 -697 138 -274 259 -541 250 -550
-5 -5 -57 3 -124 20 -147 37 -783 186 -833 195 -21 4 -41 14 -44 21 -3 7 11
33 30 56 73 91 125 215 147 352 25 158 8 478 -36 647 -16 66 -17 79 -5 79 5 0
62 -55 127 -123z"/>
<path d="M5252 11533 c-42 -30 -210 -233 -290 -352 -132 -195 -270 -447 -259
-473 3 -8 52 -34 109 -58 307 -127 538 -229 657 -292 73 -38 139 -67 146 -64
11 4 9 23 -10 95 -33 123 -83 294 -145 496 -68 225 -114 406 -135 535 -16 97
-28 131 -44 129 -3 0 -17 -7 -29 -16z m59 -115 c24 -140 62 -292 129 -513 71
-232 170 -577 170 -593 0 -7 -56 17 -132 57 -113 59 -374 174 -680 301 -43 17
-81 36 -84 41 -11 18 175 348 282 499 102 147 276 341 291 326 3 -2 13 -55 24
-118z"/>
<path d="M7515 11533 c-3 -10 -20 -90 -36 -178 -17 -88 -41 -203 -55 -255 -56
-206 -187 -659 -210 -724 -33 -92 -23 -102 59 -58 243 130 391 200 587 278
124 49 234 94 244 101 19 10 19 14 6 54 -16 49 -169 306 -249 421 -88 125
-303 378 -322 378 -9 0 -20 -8 -24 -17z m159 -145 c210 -252 460 -648 429
-679 -4 -4 -89 -39 -188 -77 -240 -93 -349 -142 -540 -245 -169 -91 -180 -93
-150 -20 18 42 153 511 209 723 19 74 45 189 56 255 26 146 38 195 49 195 5 0
66 -68 135 -152z"/>
<path d="M4290 11390 c-51 -55 -39 -91 50 -145 46 -28 64 -34 74 -26 17 15 40
123 32 154 -7 28 -15 33 -80 42 -43 7 -48 5 -76 -25z m107 5 c47 -9 51 -35 21
-132 -5 -18 -14 -33 -19 -33 -17 0 -109 62 -119 81 -19 35 32 104 70 94 8 -2
29 -6 47 -10z"/>
<path d="M8392 11404 c-17 -12 -22 -25 -21 -57 1 -50 20 -107 40 -120 20 -13
135 45 144 72 6 20 -15 72 -43 104 -19 22 -89 23 -120 1z m125 -33 c37 -55 31
-77 -28 -106 -28 -15 -58 -25 -66 -23 -19 4 -41 59 -42 105 -2 69 94 86 136
24z"/>
<path d="M4492 10909 l3 -90 47 -45 c60 -57 75 -57 84 1 11 74 -1 104 -63 167
-32 32 -61 58 -66 58 -5 0 -7 -41 -5 -91z m110 -30 c13 -26 16 -47 11 -87 -3
-28 -9 -52 -12 -52 -4 0 -27 20 -51 45 -44 45 -45 47 -49 123 l-3 77 43 -36
c23 -20 51 -51 61 -70z"/>
<path d="M8247 10932 c-53 -54 -59 -63 -63 -113 -10 -99 43 -119 107 -39 25
31 28 44 30 119 1 47 -2 86 -7 88 -5 2 -35 -23 -67 -55z m63 -32 c0 -80 0 -81
-38 -122 -53 -56 -72 -48 -72 27 0 54 2 59 53 116 28 32 53 59 55 59 1 0 2
-36 2 -80z"/>
<path d="M3603 10839 c-51 -15 -44 -47 39 -174 127 -196 194 -307 288 -480
177 -326 262 -475 270 -475 17 0 30 32 85 210 72 237 108 332 206 548 64 141
77 178 67 187 -16 15 -176 65 -333 104 -307 76 -535 105 -622 80z m313 -29
c246 -42 623 -143 632 -168 2 -6 -29 -81 -69 -169 -100 -220 -133 -309 -204
-537 -34 -110 -66 -201 -71 -203 -5 -2 -74 115 -153 259 -199 364 -247 446
-367 631 -98 152 -114 184 -97 200 14 14 216 6 329 -13z"/>
<path d="M8990 10835 c-257 -31 -697 -140 -731 -181 -10 -12 -1 -38 50 -143
42 -86 99 -237 175 -462 76 -224 117 -334 127 -334 7 0 34 41 59 90 25 50 66
122 91 160 26 39 99 167 162 286 126 236 194 351 262 440 48 64 75 111 75 132
0 30 -91 34 -270 12z m260 -17 c-1 -7 -17 -35 -36 -63 -109 -154 -195 -294
-303 -498 -67 -125 -147 -266 -177 -312 -30 -47 -69 -114 -85 -150 -16 -36
-33 -65 -37 -65 -4 0 -56 147 -117 328 -73 217 -131 370 -172 454 -49 102 -59
129 -48 138 36 30 408 125 623 159 140 23 352 28 352 9z"/>
<path d="M3285 10800 c-38 -9 -275 -69 -525 -133 -250 -63 -463 -119 -473
-122 -10 -4 -24 -20 -32 -35 -23 -44 -119 -414 -250 -961 -16 -65 -25 -126
-22 -140 5 -17 35 -41 104 -83 54 -33 128 -82 165 -108 37 -27 149 -92 250
-145 228 -119 364 -197 493 -281 156 -101 239 -142 290 -142 31 0 123 28 297
91 139 49 268 95 286 102 18 6 42 21 53 33 21 22 81 178 178 462 50 145 52
155 42 202 -15 68 -45 126 -149 283 -48 73 -135 222 -192 332 -122 236 -200
371 -279 480 -32 44 -68 99 -80 123 -13 25 -33 47 -47 52 -30 12 -23 13 -109
-10z m150 -60 c18 -30 58 -91 89 -135 79 -109 136 -206 262 -452 60 -114 147
-266 195 -338 182 -274 181 -265 61 -600 -122 -339 -118 -331 -155 -348 -18
-8 -147 -57 -287 -107 -350 -127 -330 -128 -575 30 -154 99 -288 176 -500 286
-93 48 -224 125 -290 170 -66 44 -146 96 -178 114 -34 19 -59 41 -62 53 -9 34
232 1001 270 1084 17 38 -38 21 575 178 286 73 501 123 525 122 37 -2 41 -6
70 -57z"/>
<path d="M9412 10803 c-41 -36 -230 -332 -311 -488 -117 -224 -201 -370 -293
-513 -110 -170 -142 -240 -136 -300 3 -26 39 -141 81 -257 117 -325 128 -352
145 -369 33 -29 596 -226 647 -226 39 0 98 30 370 190 110 64 304 176 430 247
225 127 427 254 473 296 12 11 22 28 22 38 0 17 -29 132 -196 783 -41 159 -81
299 -89 312 -8 12 -39 32 -69 43 -62 23 -1005 261 -1034 261 -11 0 -29 -8 -40
-17z m540 -117 c273 -69 517 -133 542 -144 24 -11 49 -29 55 -39 19 -36 281
-1081 275 -1096 -9 -24 -255 -181 -494 -314 -118 -66 -278 -157 -355 -203
-417 -244 -406 -240 -493 -215 -126 37 -558 197 -575 214 -22 21 -227 589
-227 629 0 38 57 153 129 260 76 113 182 299 296 517 118 225 311 515 344 515
3 0 230 -56 503 -124z"/>
<path d="M8004 10606 c-231 -81 -448 -183 -723 -337 l-132 -74 -161 -248
c-145 -224 -160 -251 -152 -275 6 -18 51 -56 134 -115 69 -49 213 -153 320
-231 285 -209 262 -196 377 -206 90 -8 206 -27 599 -95 78 -14 149 -23 157
-19 9 3 21 20 26 37 13 41 72 279 106 425 l26 114 -42 151 c-81 298 -208 644
-302 820 -32 61 -68 97 -96 96 -9 0 -70 -19 -137 -43z m182 7 c21 -21 111
-209 163 -342 51 -128 121 -342 175 -530 l43 -154 -22 -101 c-13 -55 -40 -166
-60 -246 -61 -243 -51 -220 -89 -220 -19 0 -69 7 -112 15 -253 47 -558 95
-601 95 -93 0 -130 19 -380 202 -131 95 -284 206 -340 246 -57 40 -107 81
-112 91 -13 23 -13 23 160 290 164 254 123 218 429 382 190 101 374 184 545
245 132 47 175 53 201 27z"/>
<path d="M4617 10609 c-82 -111 -222 -467 -327 -837 l-50 -173 61 -282 c67
-314 72 -324 139 -313 19 3 214 35 433 70 l397 64 83 58 c222 155 625 455 631
469 3 9 1 26 -5 38 -18 35 -290 460 -308 481 -21 25 -777 398 -861 425 -36 11
-88 23 -116 27 -50 6 -52 5 -77 -27z m232 -29 c42 -16 239 -110 437 -209 292
-144 366 -185 387 -212 72 -97 298 -465 295 -483 -2 -14 -97 -89 -288 -228
-157 -115 -314 -228 -350 -253 l-65 -44 -345 -56 c-190 -30 -379 -61 -421 -68
-93 -17 -115 -10 -129 40 -20 73 -110 504 -110 529 0 34 88 339 146 505 82
236 196 485 234 512 27 19 107 6 209 -33z"/>
<path d="M2015 10449 c-577 -258 -861 -434 -1130 -700 -117 -116 -128 -130
-114 -144 14 -14 27 -13 135 11 106 24 145 28 348 32 154 3 249 0 290 -8 82
-16 171 -58 268 -126 44 -30 86 -53 93 -50 18 7 24 27 149 556 107 452 109
471 67 469 -9 0 -56 -18 -106 -40z m125 13 c0 -31 -227 -973 -237 -983 -5 -5
-36 11 -78 42 -80 58 -190 113 -255 128 -25 6 -151 11 -280 11 -201 0 -249 -3
-330 -21 -116 -25 -180 -34 -180 -25 0 16 108 130 196 207 172 150 322 252
559 381 155 85 570 277 598 278 4 0 7 -8 7 -18z"/>
<path d="M10663 10474 c-3 -9 42 -220 101 -468 126 -531 133 -556 148 -556 6
0 36 19 67 42 83 63 208 124 294 143 64 14 116 16 314 13 216 -4 248 -7 345
-31 128 -32 128 -32 128 -9 0 21 -180 200 -290 289 -233 187 -575 383 -937
537 -142 60 -160 65 -170 40z m155 -48 c509 -218 863 -440 1132 -711 119 -120
120 -119 -42 -80 -96 23 -121 25 -348 25 -325 0 -382 -14 -568 -143 -42 -29
-76 -46 -81 -41 -5 5 -20 59 -34 119 -15 61 -67 280 -117 488 -81 340 -91 397
-74 397 3 0 62 -24 132 -54z"/>
<path d="M5904 10056 c-3 -8 36 -82 87 -165 78 -127 97 -151 117 -151 26 0
222 106 222 120 0 12 -4 14 -200 108 -222 106 -219 105 -226 88z m212 -95
c104 -50 190 -94 191 -98 4 -10 -178 -113 -199 -113 -10 0 -52 60 -107 150
-50 83 -87 150 -83 150 5 0 94 -40 198 -89z"/>
<path d="M6700 9975 c-143 -69 -196 -98 -198 -112 -2 -15 17 -31 84 -69 120
-67 121 -68 147 -41 35 35 189 295 182 307 -3 5 -9 10 -13 9 -4 0 -95 -43
-202 -94z m200 70 c0 -6 -137 -233 -162 -267 -11 -16 -25 -28 -33 -28 -16 0
-179 90 -183 102 -2 4 -3 10 -3 14 0 6 358 182 374 183 4 1 7 -1 7 -4z"/>
<path d="M6267 9757 c-109 -56 -137 -75 -137 -91 0 -25 51 -107 163 -264 92
-129 113 -142 157 -96 52 54 234 328 235 354 0 21 -15 33 -115 87 -171 93
-146 92 -303 10z m272 -8 c64 -34 123 -67 131 -75 12 -12 1 -33 -85 -160 -123
-181 -163 -228 -188 -219 -27 11 -257 340 -257 368 0 14 242 146 269 147 8 0
66 -27 130 -61z"/>
<path d="M5954 9584 c-126 -86 -561 -399 -572 -412 -29 -37 -2 -40 383 -44
l370 -3 73 44 c39 24 72 49 72 55 0 20 -255 381 -271 384 -8 1 -33 -9 -55 -24z
m152 -118 c42 -61 95 -140 120 -176 l45 -64 -23 -18 c-13 -9 -50 -31 -84 -48
l-60 -31 -160 10 c-87 6 -248 11 -356 11 -109 0 -198 4 -198 8 0 8 503 372
578 419 28 17 39 20 50 11 8 -7 47 -62 88 -122z"/>
<path d="M6787 9593 c-34 -39 -227 -339 -227 -355 0 -19 47 -61 101 -88 58
-30 166 -43 313 -36 72 3 206 9 299 12 153 6 167 8 167 25 0 13 -95 86 -309
239 -169 121 -313 220 -318 220 -5 0 -17 -8 -26 -17z m325 -204 c282 -201 326
-235 317 -243 -2 -2 -153 -7 -335 -11 -296 -7 -336 -6 -382 9 -69 23 -132 70
-132 98 0 32 211 348 232 348 10 0 145 -91 300 -201z"/>
<path d="M4144 9304 c-35 -85 -134 -368 -134 -385 0 -25 16 -24 130 7 144 40
139 28 88 234 -24 98 -49 175 -56 178 -7 2 -19 -12 -28 -34z m72 -148 c23 -91
38 -169 35 -174 -7 -12 -221 -75 -228 -68 -7 6 137 406 146 406 4 0 25 -74 47
-164z"/>
<path d="M8636 9332 c-3 -5 -24 -83 -46 -172 -29 -119 -37 -167 -30 -181 9
-17 30 -25 193 -71 69 -20 68 -9 -14 219 -68 191 -88 229 -103 205z m92 -212
c39 -107 68 -198 66 -202 -4 -7 -176 37 -206 53 -10 6 -18 17 -18 27 0 34 74
332 81 325 4 -5 39 -96 77 -203z"/>
<path d="M1962 9238 c-29 -29 -6 -302 44 -542 38 -176 112 -428 133 -449 18
-18 21 -17 99 22 134 67 243 109 550 212 162 54 296 100 299 103 11 11 -12 28
-87 66 -43 22 -116 64 -162 93 -46 30 -175 102 -287 161 -233 123 -353 195
-455 270 -65 48 -109 76 -118 76 -2 0 -9 -5 -16 -12z m134 -79 c126 -90 210
-140 464 -274 113 -60 237 -129 275 -155 39 -26 108 -66 154 -89 46 -24 80
-46 75 -51 -5 -4 -142 -51 -304 -105 -164 -54 -353 -124 -425 -157 -165 -76
-183 -83 -190 -77 -8 9 -83 260 -107 359 -33 137 -57 285 -69 430 -13 138 -9
190 14 190 7 0 58 -32 113 -71z"/>
<path d="M10765 9207 c-22 -13 -102 -65 -178 -115 -75 -50 -165 -107 -200
-125 -34 -19 -196 -108 -360 -197 -220 -120 -297 -167 -295 -179 2 -11 48 -29
158 -62 158 -47 218 -69 557 -211 106 -44 203 -78 215 -76 31 4 65 102 123
348 60 255 77 366 79 498 1 102 -1 115 -18 128 -26 19 -34 18 -81 -9z m83
-102 c3 -119 -15 -245 -70 -485 -48 -210 -94 -359 -113 -366 -8 -3 -146 49
-307 116 -161 67 -354 140 -428 162 -74 21 -145 42 -157 46 -13 4 -23 11 -24
16 -1 9 102 67 500 282 106 58 272 157 369 220 128 84 183 114 202 112 25 -3
25 -4 28 -103z"/>
<path d="M6368 9124 c-33 -17 -35 -29 -9 -44 39 -20 121 -6 121 21 0 9 -20 19
-65 32 -11 3 -32 -1 -47 -9z m70 -10 c41 -11 22 -24 -35 -24 -53 1 -56 2 -39
15 21 16 38 18 74 9z"/>
<path d="M5295 9079 c-25 -14 -326 -311 -447 -442 -81 -87 -89 -100 -76 -113
16 -17 153 -46 344 -74 159 -23 225 -39 367 -92 60 -22 115 -37 123 -34 8 3
37 52 64 108 64 134 136 253 203 336 84 105 189 268 185 289 -3 16 -20 19
-203 24 -332 10 -538 9 -560 -2z m749 -20 c10 -9 -89 -165 -188 -294 -85 -110
-105 -142 -181 -296 -37 -74 -69 -135 -70 -137 -2 -2 -47 13 -100 33 -120 45
-256 81 -360 95 -189 25 -365 63 -365 77 0 8 95 112 211 231 264 271 294 300
322 305 38 8 722 -5 731 -14z"/>
<path d="M6945 9080 c-104 -3 -191 -7 -192 -8 -15 -12 71 -149 194 -308 81
-104 151 -223 205 -345 23 -54 47 -100 53 -102 5 -3 51 11 100 30 148 57 251
83 430 109 221 33 294 49 313 68 14 14 7 24 -74 108 -220 231 -421 431 -446
444 -29 15 -192 16 -583 4z m836 -268 c219 -222 280 -292 255 -292 -2 0 -39
-7 -82 -15 -44 -8 -155 -26 -248 -40 -136 -20 -197 -34 -315 -75 -80 -28 -155
-53 -166 -56 -17 -5 -26 7 -58 84 -49 115 -130 252 -210 355 -73 94 -185 259
-189 279 -2 10 41 14 212 19 118 3 289 5 379 5 l163 -1 259 -263z"/>
<path d="M7648 9083 c-10 -2 -18 -12 -18 -22 0 -10 110 -132 244 -273 l245
-255 92 -26 c105 -30 114 -28 124 36 4 23 22 118 40 212 23 114 31 175 24 186
-5 11 -30 22 -61 28 -84 18 -662 121 -668 120 -3 -1 -13 -3 -22 -6z m391 -73
c184 -34 338 -63 343 -66 13 -8 11 -28 -29 -238 -21 -109 -43 -201 -50 -203
-6 -2 -48 5 -92 17 l-81 22 -245 254 c-135 139 -245 258 -245 263 0 11 27 19
50 14 8 -2 165 -30 349 -63z"/>
<path d="M4778 9020 c-190 -32 -351 -61 -357 -64 -6 -4 -11 -17 -11 -29 0 -31
69 -387 80 -414 12 -29 32 -29 127 -1 l75 22 254 260 c140 143 254 266 254
273 0 21 -50 15 -422 -47z m402 42 c0 -8 -358 -386 -444 -468 -47 -45 -65 -54
-136 -73 -48 -13 -86 -19 -91 -14 -14 14 -92 424 -82 434 7 7 681 124 736 128
9 0 17 -3 17 -7z"/>
<path d="M6187 9011 c-42 -39 -46 -58 -10 -47 37 12 114 66 108 76 -14 22 -57
9 -98 -29z m78 19 c-7 -11 -79 -50 -92 -50 -17 1 62 60 80 60 10 0 15 -5 12
-10z"/>
<path d="M6536 9041 c-7 -11 16 -30 76 -64 54 -31 58 -32 58 -13 0 22 -77 86
-104 86 -14 0 -27 -4 -30 -9z m82 -36 l37 -35 -52 28 c-53 27 -66 42 -38 42 8
0 32 -16 53 -35z"/>
<path d="M12311 9019 c-74 -13 -226 -81 -309 -139 -94 -66 -212 -205 -212
-249 0 -36 42 -45 210 -45 127 1 169 5 233 22 153 42 282 134 307 219 39 130
-67 218 -229 192z m136 -20 c42 -15 72 -48 83 -89 49 -182 -318 -360 -640
-310 -51 8 -84 18 -87 27 -8 20 42 88 127 173 146 146 399 244 517 199z"/>
<path d="M350 9003 c-84 -44 -106 -147 -47 -224 98 -130 331 -208 579 -196
164 8 178 25 104 123 -136 184 -331 300 -521 311 -64 3 -87 1 -115 -14z m206
-13 c185 -47 341 -163 449 -333 11 -18 14 -32 9 -37 -23 -23 -173 -34 -282
-21 -287 33 -488 176 -443 314 31 92 114 116 267 77z"/>
<path d="M6295 8983 c-98 -41 -170 -114 -201 -206 -7 -23 -34 -166 -60 -317
-44 -266 -64 -478 -50 -535 4 -14 42 -64 86 -111 102 -107 167 -205 255 -379
42 -85 76 -140 85 -140 9 0 44 59 90 150 92 183 134 246 237 351 55 56 86 95
98 129 19 48 19 49 -14 282 -38 271 -81 499 -112 591 -25 76 -78 135 -154 172
-65 32 -199 39 -260 13z m259 -27 c73 -36 121 -94 146 -174 30 -97 66 -288
105 -557 43 -304 45 -296 -90 -435 -99 -102 -146 -173 -232 -347 -36 -73 -69
-133 -74 -133 -4 0 -38 59 -73 131 -84 168 -154 272 -257 383 l-84 89 1 121
c0 95 10 181 47 401 26 154 54 303 62 331 53 185 271 277 449 190z"/>
<path d="M4111 8870 c-62 -21 -122 -47 -133 -58 -11 -11 -37 -75 -58 -143 -53
-174 -61 -165 176 -213 184 -37 230 -41 259 -22 14 9 25 26 25 38 0 35 -71
401 -81 421 -14 26 -59 20 -188 -23z m179 8 c17 -40 71 -356 68 -395 l-3 -38
-80 1 c-75 1 -298 42 -354 65 -20 8 -23 14 -17 47 12 73 74 245 93 256 25 14
244 85 266 86 9 0 22 -10 27 -22z"/>
<path d="M8511 8878 c-17 -54 -71 -358 -71 -399 0 -51 23 -63 105 -56 95 9
348 67 368 84 24 22 22 34 -23 177 -30 91 -47 130 -63 140 -31 20 -245 86
-278 86 -22 0 -29 -6 -38 -32z m181 -18 c94 -30 132 -47 142 -63 21 -33 86
-255 80 -272 -7 -17 -10 -18 -156 -50 -172 -37 -252 -47 -284 -35 -25 10 -26
12 -19 68 7 58 62 357 70 380 7 19 30 15 167 -28z"/>
<path d="M6764 8788 c42 -147 74 -317 111 -587 13 -102 30 -189 36 -195 8 -8
22 2 51 34 69 77 127 156 133 183 21 82 -99 326 -257 522 -53 66 -86 85 -74
43z m106 -105 c109 -146 202 -330 208 -412 4 -59 3 -63 -39 -117 -61 -80 -116
-140 -122 -134 -3 3 -15 77 -26 165 -30 225 -48 332 -82 474 -16 68 -29 125
-29 127 0 13 17 -7 90 -103z"/>
<path d="M3695 8731 c-211 -77 -237 -89 -233 -103 5 -14 302 -89 343 -85 27 2
31 7 52 77 29 94 34 163 13 167 -8 1 -87 -24 -175 -56z m160 -66 c-14 -54 -29
-103 -35 -109 -10 -10 -315 57 -333 74 -5 4 43 26 105 48 62 23 149 54 193 70
44 16 83 26 88 23 4 -4 -4 -52 -18 -106z"/>
<path d="M8924 8776 c-9 -22 47 -214 67 -232 18 -16 29 -14 191 27 126 32 173
48 173 59 0 10 -62 37 -195 87 -107 39 -203 72 -213 72 -10 1 -20 -5 -23 -13z
m229 -71 c103 -38 187 -71 187 -75 0 -7 -288 -80 -318 -80 -28 0 -36 14 -65
119 -26 92 -27 117 -3 108 6 -2 95 -35 199 -72z"/>
<path d="M5969 8728 c-76 -89 -116 -150 -184 -283 -56 -109 -65 -134 -65 -180
0 -49 4 -60 51 -122 64 -85 109 -133 126 -133 16 0 13 -13 78 380 31 184 58
347 61 363 10 43 -17 34 -67 -25z m-4 -314 c-30 -186 -58 -352 -61 -369 l-7
-30 -54 60 c-30 32 -68 80 -84 105 -27 40 -30 51 -26 97 9 83 132 311 235 431
25 29 47 51 49 49 2 -2 -22 -156 -52 -343z"/>
<path d="M3125 8539 c-170 -48 -352 -105 -495 -156 -155 -55 -428 -179 -462
-210 -27 -24 -22 -59 23 -190 58 -163 135 -339 236 -533 106 -205 156 -283
219 -339 76 -68 444 -292 474 -289 30 4 41 17 325 406 119 165 217 308 221
325 4 18 35 212 69 432 68 434 68 436 11 454 -92 29 -497 121 -528 120 -13 0
-54 -9 -93 -20z m355 -49 c294 -69 289 -67 296 -94 3 -12 -9 -115 -26 -227
-48 -317 -90 -581 -96 -612 -3 -15 -92 -145 -198 -290 -105 -144 -218 -299
-250 -344 -33 -46 -68 -85 -79 -89 -13 -4 -44 10 -95 41 -43 26 -140 87 -217
134 -206 126 -220 144 -380 454 -129 251 -275 605 -275 667 0 26 39 53 149
106 261 125 849 319 931 308 19 -3 127 -27 240 -54z"/>
<path d="M9555 8553 c-184 -43 -449 -106 -478 -114 -23 -6 -42 -19 -48 -32 -8
-17 6 -127 56 -442 55 -349 70 -427 90 -460 40 -68 489 -677 507 -689 14 -8
36 -2 105 33 202 100 409 267 496 399 78 119 289 580 359 784 l33 97 -21 27
c-54 72 -437 228 -858 350 -186 53 -201 56 -241 47z m196 -48 c302 -84 559
-176 764 -276 122 -59 135 -70 135 -109 0 -79 -268 -693 -375 -861 -84 -131
-263 -278 -468 -385 -90 -46 -110 -54 -123 -43 -25 21 -496 671 -510 704 -7
17 -40 206 -73 420 -34 215 -63 399 -66 411 -10 44 12 54 269 114 289 68 287
68 303 64 6 -1 71 -19 144 -39z"/>
<path d="M1418 8514 c-41 -21 -48 -29 -48 -55 0 -37 21 -89 44 -108 15 -13 25
-12 78 5 85 27 90 39 50 119 -37 75 -49 79 -124 39z m107 -35 c37 -73 32 -90
-35 -110 -30 -9 -60 -15 -66 -12 -14 5 -31 42 -39 86 -7 35 -5 36 42 61 26 14
54 25 60 26 7 0 24 -23 38 -51z"/>
<path d="M11318 8530 c-15 -9 -78 -111 -78 -127 1 -21 21 -34 79 -48 56 -15
65 -15 85 -1 29 18 51 97 36 125 -26 49 -84 73 -122 51z m82 -27 c29 -24 32
-31 27 -70 -6 -53 -21 -73 -56 -73 -37 0 -105 20 -113 33 -4 7 5 32 19 57 51
89 70 98 123 53z"/>
<path d="M4650 8390 c-11 -11 -20 -24 -20 -30 0 -13 39 -13 81 1 46 16 58 27
39 39 -26 17 -79 11 -100 -10z m78 1 c9 -6 0 -12 -29 -19 -49 -12 -63 -7 -35
14 22 16 45 18 64 5z"/>
<path d="M8064 8399 c-8 -14 3 -24 45 -38 40 -13 81 -15 81 -3 0 5 -9 18 -20
30 -22 24 -93 31 -106 11z m96 -14 c19 -23 6 -28 -39 -14 -28 8 -38 15 -29 21
21 13 55 9 68 -7z"/>
<path d="M3843 8378 c-16 -21 -119 -609 -125 -713 -4 -79 16 -72 145 51 397
383 404 390 422 452 28 94 30 129 9 140 -22 12 -379 82 -416 82 -14 0 -30 -6
-35 -12z m241 -37 c109 -21 202 -43 208 -49 9 -9 -10 -104 -33 -162 -8 -22
-497 -500 -520 -508 -21 -8 -5 119 56 458 55 302 54 300 74 300 9 0 106 -18
215 -39z"/>
<path d="M8832 8370 c-40 -9 -121 -26 -179 -36 -61 -10 -114 -25 -127 -35
l-21 -17 19 -74 c10 -40 27 -87 37 -103 16 -27 182 -190 442 -434 99 -93 105
-89 89 51 -19 164 -103 621 -119 646 -16 26 -39 27 -141 2z m125 2 c20 -13
144 -734 129 -750 -7 -6 -45 29 -318 291 l-198 189 -26 85 c-14 46 -23 90 -21
98 4 8 45 20 104 30 54 10 143 28 198 40 116 27 116 27 132 17z"/>
<path d="M4504 8361 c-38 -23 -74 -72 -74 -100 0 -31 15 -26 72 21 59 51 76
77 57 89 -19 12 -20 12 -55 -10z m44 -13 c-2 -6 -27 -31 -56 -56 -39 -34 -52
-40 -52 -27 0 22 72 95 95 95 9 0 15 -5 13 -12z"/>
<path d="M8263 8364 c-4 -10 13 -34 48 -70 29 -30 57 -54 61 -54 17 0 7 55
-17 85 -30 40 -83 62 -92 39z m61 -25 c25 -20 52 -67 43 -75 -2 -2 -25 19 -52
46 -50 51 -44 71 9 29z"/>
<path d="M7770 8363 c-101 -18 -479 -117 -504 -132 -17 -11 -39 -32 -48 -48
-20 -35 -47 -278 -32 -293 7 -7 39 12 94 56 46 36 198 142 337 235 139 93 253
174 253 179 0 10 -52 11 -100 3z m80 -8 c0 -2 -109 -77 -242 -166 -134 -89
-280 -191 -326 -227 -46 -35 -85 -62 -88 -60 -2 3 2 62 9 131 19 171 27 182
158 218 102 28 398 97 439 102 19 2 38 5 43 5 4 1 7 0 7 -3z"/>
<path d="M4970 8352 c0 -6 12 -19 28 -29 15 -9 158 -111 319 -225 160 -114
296 -208 302 -208 19 0 20 18 5 136 -18 136 -33 176 -78 204 -38 23 -188 73
-300 100 -99 24 -276 38 -276 22z m233 -28 c87 -17 281 -75 327 -99 16 -8 37
-26 46 -40 15 -24 48 -230 42 -266 -2 -14 -68 29 -300 194 -163 117 -305 217
-315 223 -24 16 93 8 200 -12z"/>
<path d="M4745 8334 c-63 -15 -122 -38 -156 -61 -65 -43 -129 -181 -129 -279
0 -67 24 -118 132 -278 191 -284 385 -521 445 -544 15 -6 87 -13 158 -16 148
-6 248 -27 420 -85 129 -44 151 -48 158 -28 2 6 -16 71 -40 142 -61 181 -73
240 -83 400 -4 77 -13 153 -19 168 -19 50 -121 146 -286 270 -341 257 -494
337 -600 311z m183 -48 c93 -45 204 -119 403 -268 188 -140 274 -223 288 -276
6 -20 15 -102 20 -182 11 -156 18 -188 83 -382 23 -70 39 -130 36 -133 -3 -4
-66 14 -140 39 -180 61 -311 86 -443 86 -73 0 -115 4 -134 15 -69 35 -242 247
-433 531 -131 192 -147 234 -128 334 14 76 64 175 105 205 50 39 131 64 205
65 55 0 78 -6 138 -34z"/>
<path d="M7965 8330 c-22 -5 -53 -13 -69 -20 -50 -19 -418 -280 -598 -423
-118 -94 -127 -114 -134 -293 -7 -158 -32 -284 -88 -434 -38 -100 -42 -125
-26 -135 6 -3 63 12 128 35 188 66 299 90 452 97 79 3 146 11 161 19 72 36
429 501 515 670 41 81 46 99 46 155 0 204 -194 368 -387 329z m199 -44 c105
-52 176 -166 176 -284 0 -99 -59 -202 -288 -509 -65 -87 -152 -194 -194 -238
l-76 -80 -143 -6 c-171 -7 -254 -24 -440 -88 -77 -27 -142 -45 -144 -41 -3 4
15 64 39 131 59 166 75 246 84 424 6 106 14 159 25 181 9 18 58 65 109 106
191 153 544 400 605 423 61 24 178 14 247 -19z"/>
<path d="M1802 8296 c2 -7 34 -41 73 -74 73 -65 93 -72 153 -51 17 6 33 16 35
23 7 18 -26 71 -55 89 -32 20 -211 31 -206 13z m214 -40 c45 -45 43 -62 -6
-77 -48 -15 -61 -9 -139 62 l-55 49 83 0 c81 0 84 -1 117 -34z"/>
<path d="M10925 8304 c-117 -23 -125 -26 -150 -55 -31 -38 -32 -65 -2 -73 36
-9 107 -7 130 5 32 17 127 111 121 121 -5 8 -61 9 -99 2z m45 -50 c-58 -60
-94 -75 -159 -67 -58 7 -63 18 -23 55 33 31 57 39 142 48 36 4 69 8 75 9 5 0
-11 -20 -35 -45z"/>
<path d="M4409 8149 c-15 -15 -19 -30 -17 -61 4 -57 23 -58 42 -2 27 81 18
106 -25 63z m27 -15 c-3 -9 -9 -27 -12 -40 -3 -13 -10 -24 -15 -24 -13 0 -11
54 3 68 17 17 31 15 24 -4z"/>
<path d="M8367 8164 c-7 -7 18 -93 32 -107 16 -16 22 -4 23 44 0 30 -5 46 -18
56 -20 14 -28 16 -37 7z m42 -63 l-1 -36 -13 30 c-8 17 -14 38 -15 49 0 15 3
16 15 6 9 -7 15 -28 14 -49z"/>
<path d="M129 8109 c-21 -39 -6 -377 25 -554 49 -279 140 -589 263 -895 45
-113 63 -146 78 -148 17 -2 63 67 265 393 328 531 308 495 285 511 -10 8 -33
14 -49 14 -54 0 -197 39 -263 72 -103 51 -382 314 -470 444 -22 32 -52 82 -66
110 -35 69 -52 82 -68 53z m70 -83 c22 -41 67 -107 99 -147 72 -91 303 -311
378 -361 62 -40 181 -81 292 -98 44 -7 72 -17 72 -24 0 -7 -60 -109 -133 -227
-73 -118 -193 -312 -266 -432 -74 -120 -139 -216 -145 -214 -24 8 -181 433
-246 665 -81 290 -128 626 -115 814 4 60 11 106 15 103 5 -3 26 -38 49 -79z"/>
<path d="M10716 8088 c-8 -13 -33 -79 -57 -148 -27 -76 -103 -245 -197 -434
-104 -210 -150 -312 -143 -319 7 -7 53 3 143 31 73 23 189 55 258 71 69 16
190 50 270 76 188 59 268 79 418 104 129 22 162 33 162 55 0 19 -155 165 -225
213 -60 40 -550 340 -592 362 -19 10 -24 8 -37 -11z m264 -140 c325 -198 427
-268 509 -352 73 -74 74 -75 50 -85 -13 -6 -90 -22 -170 -36 -82 -13 -210 -45
-290 -70 -79 -25 -245 -72 -369 -104 -124 -33 -258 -71 -299 -85 -41 -14 -76
-26 -78 -26 -11 0 12 50 145 317 81 164 165 348 187 408 60 174 63 178 82 171
10 -4 114 -66 233 -138z"/>
<path d="M1955 8041 c-244 -129 -489 -295 -612 -414 -74 -71 -88 -102 -59
-126 8 -7 86 -25 174 -42 170 -31 280 -60 735 -196 158 -47 294 -83 302 -79
19 7 33 -25 -157 356 -84 169 -164 346 -188 415 -42 122 -54 145 -74 145 -6 0
-60 -27 -121 -59z m185 -96 c24 -69 108 -254 197 -433 86 -172 154 -315 151
-317 -2 -2 -132 34 -289 81 -409 122 -584 168 -753 201 -197 37 -198 38 -86
146 122 119 358 278 605 408 85 45 113 56 121 46 7 -7 31 -66 54 -132z"/>
<path d="M12608 8042 c-24 -33 -74 -104 -113 -157 -96 -133 -305 -328 -408
-379 -77 -38 -208 -76 -262 -76 -17 0 -39 -6 -49 -13 -16 -12 -17 -17 -6 -38
36 -67 514 -837 531 -854 17 -17 21 -18 34 -5 18 19 189 488 244 672 83 275
114 487 109 748 -3 136 -5 155 -20 158 -11 2 -32 -17 -60 -56z m69 -176 c-9
-264 -39 -443 -119 -700 -42 -136 -217 -619 -229 -631 -6 -6 -14 -4 -23 5 -14
15 -495 791 -522 841 l-13 27 80 12 c101 14 204 49 276 92 31 18 113 86 184
151 101 93 146 144 216 244 48 69 99 139 112 155 22 27 25 28 34 12 6 -11 8
-90 4 -208z"/>
<path d="M3996 7794 c-140 -135 -261 -260 -269 -277 -23 -50 -27 -149 -19
-469 5 -209 11 -301 19 -309 15 -15 139 61 288 177 120 94 218 154 363 220 61
28 102 53 102 62 0 8 -16 57 -35 109 -51 135 -82 261 -99 398 -25 202 -57 335
-81 335 -8 0 -128 -111 -269 -246z m304 113 c10 -53 26 -151 35 -220 16 -131
41 -229 99 -391 34 -94 37 -116 15 -116 -6 0 -60 -24 -122 -54 -122 -59 -244
-135 -322 -201 -59 -50 -245 -175 -261 -175 -7 0 -13 74 -17 233 -11 359 -9
483 7 520 8 19 118 134 271 281 207 200 259 246 266 233 5 -8 18 -58 29 -110z"/>
<path d="M8535 8030 c-3 -5 -17 -71 -30 -147 -31 -180 -55 -279 -116 -496 -28
-97 -49 -184 -46 -192 3 -7 58 -39 122 -69 140 -66 212 -110 319 -191 114 -86
276 -195 292 -195 7 0 15 3 17 8 3 4 8 176 12 382 l7 375 -272 267 c-151 148
-279 268 -286 268 -7 0 -15 -4 -19 -10z m337 -305 c114 -111 212 -214 218
-230 13 -34 2 -733 -12 -741 -9 -6 -166 100 -318 215 -58 44 -153 101 -245
147 -82 41 -153 79 -158 83 -4 4 4 45 18 92 54 176 115 430 141 574 14 82 28
153 31 158 6 9 44 -26 325 -298z"/>
<path d="M5735 8000 c-6 -10 11 -198 22 -235 3 -11 20 -45 38 -75 18 -30 56
-100 85 -155 125 -237 157 -282 174 -240 7 19 -139 510 -161 545 -26 39 -137
170 -145 170 -4 0 -10 -4 -13 -10z m76 -77 c31 -38 63 -79 71 -93 9 -14 46
-125 82 -246 65 -215 84 -294 73 -294 -7 0 -122 201 -167 290 -18 36 -48 91
-67 122 -30 49 -37 71 -44 145 -5 48 -11 100 -13 116 -3 15 -2 27 2 27 5 0 33
-30 63 -67z"/>
<path d="M7023 7959 c-100 -108 -116 -143 -204 -453 -50 -177 -57 -212 -46
-223 11 -12 16 -12 24 -1 21 27 166 285 219 390 54 107 55 111 61 218 4 78 3
110 -5 110 -6 0 -28 -18 -49 -41z m46 -6 c-2 -121 -17 -182 -69 -284 -61 -120
-197 -359 -212 -374 -17 -16 -2 47 58 257 31 106 68 220 84 253 29 59 116 175
132 175 4 0 8 -12 7 -27z"/>
<path d="M4434 7774 c16 -179 80 -419 135 -506 41 -64 90 -85 226 -97 61 -5
114 -6 118 -2 4 5 -5 23 -20 41 -15 18 -121 168 -234 334 -113 165 -212 302
-219 304 -10 4 -12 -11 -6 -74z m212 -234 c103 -151 202 -293 221 -316 18 -23
33 -43 33 -46 0 -10 -229 21 -256 35 -54 28 -85 80 -127 213 -40 125 -91 422
-69 399 6 -5 94 -134 198 -285z"/>
<path d="M8135 7518 c-125 -177 -228 -329 -229 -337 -1 -11 7 -15 24 -14 14 1
68 5 120 9 114 8 149 21 184 67 34 44 90 207 117 340 24 122 36 257 22 257 -6
0 -113 -145 -238 -322z m230 240 c-11 -106 -45 -257 -82 -373 -29 -89 -43
-117 -73 -147 -21 -21 -48 -38 -61 -39 -48 -2 -95 -6 -161 -13 -38 -4 -68 -5
-68 -1 0 8 442 635 448 635 2 0 1 -28 -3 -62z"/>
<path d="M6015 7680 c-8 -13 82 -452 105 -513 27 -69 141 -237 162 -237 21 0
58 95 58 150 0 61 -146 396 -223 510 -34 52 -77 100 -88 100 -4 0 -11 -4 -14
-10z m68 -66 c46 -61 107 -178 183 -354 50 -115 59 -143 58 -190 -2 -54 -26
-130 -43 -130 -9 0 -109 148 -139 206 -11 21 -27 77 -36 124 -9 47 -32 156
-50 243 -21 99 -29 157 -22 154 6 -2 28 -26 49 -53z"/>
<path d="M6743 7646 c-24 -28 -78 -129 -152 -285 -124 -263 -130 -283 -95
-371 22 -57 32 -70 49 -64 15 6 143 200 163 246 6 15 19 87 28 160 8 72 27
170 41 217 14 47 28 98 31 114 7 41 -20 34 -65 -17z m29 -68 c-17 -53 -37
-149 -47 -223 -9 -71 -20 -145 -25 -164 -11 -42 -150 -253 -163 -248 -20 6
-49 101 -44 147 6 61 217 504 264 555 19 20 36 35 39 32 3 -3 -8 -47 -24 -99z"/>
<path d="M5753 7574 c-23 -61 112 -494 192 -614 32 -48 131 -108 160 -96 19 7
19 54 0 145 -23 110 -54 173 -144 294 -46 62 -104 151 -130 197 -48 86 -66
104 -78 74z m66 -77 c31 -58 75 -123 193 -285 15 -20 39 -69 53 -109 26 -76
52 -209 42 -219 -13 -13 -75 8 -111 38 -45 37 -95 137 -155 312 -36 104 -81
283 -81 322 0 31 24 7 59 -59z"/>
<path d="M7007 7548 c-13 -24 -40 -72 -60 -108 -19 -36 -61 -94 -91 -130 -31
-35 -68 -87 -81 -115 -28 -57 -74 -226 -77 -289 -4 -53 16 -57 92 -18 46 23
61 38 93 92 83 143 166 405 170 534 2 84 -12 94 -46 34z m37 -30 c-18 -159
-96 -398 -171 -528 -33 -57 -45 -69 -97 -93 -32 -16 -62 -25 -66 -20 -11 11
34 208 67 289 15 39 45 86 73 117 51 56 98 126 150 225 18 34 37 62 42 62 5 0
6 -24 2 -52z"/>
<path d="M3414 7128 c-119 -167 -219 -313 -222 -324 -3 -18 24 -40 177 -142
132 -87 188 -118 203 -114 25 6 72 78 94 144 14 43 15 89 9 371 -3 177 -8 332
-11 345 -2 12 -11 22 -18 22 -8 0 -112 -136 -232 -302z m242 -422 c-21 -70
-71 -146 -94 -146 -29 0 -364 229 -358 245 4 11 349 496 415 584 l26 35 14
-334 c12 -303 12 -338 -3 -384z"/>
<path d="M9155 7418 c-2 -7 -6 -175 -8 -373 l-5 -360 45 -82 c25 -46 50 -83
56 -83 21 1 382 255 385 271 2 14 -378 557 -431 617 -23 25 -36 28 -42 10z
m78 -80 c30 -40 129 -178 221 -307 136 -191 164 -236 155 -248 -7 -8 -60 -46
-118 -85 -58 -39 -133 -90 -166 -113 -33 -23 -65 -45 -72 -49 -8 -4 -27 23
-56 76 l-43 83 4 358 c2 201 8 357 13 357 5 0 33 -33 62 -72z"/>
<path d="M11420 7350 c-224 -51 -244 -57 -560 -153 -118 -36 -291 -82 -385
-101 -201 -43 -213 -47 -258 -92 -48 -48 -290 -562 -289 -613 1 -23 28 -93 77
-196 43 -88 95 -200 117 -250 83 -189 115 -209 428 -269 146 -28 194 -41 485
-135 175 -56 545 -141 615 -141 15 0 34 8 42 18 14 15 347 570 506 843 34 58
62 118 62 132 0 16 -34 85 -82 165 -381 642 -491 823 -508 832 -24 13 -13 15
-250 -40z m259 16 c38 -46 571 -955 571 -974 0 -10 -113 -210 -251 -443 -293
-493 -314 -528 -333 -535 -30 -11 -431 77 -599 131 -265 87 -392 122 -539 150
-209 39 -258 57 -308 111 -23 25 -51 67 -62 92 -11 26 -65 141 -119 256 -55
115 -99 222 -99 238 0 27 201 472 255 565 14 23 40 51 59 62 19 12 109 38 212
61 213 47 200 43 489 132 225 69 619 166 681 167 17 1 37 -5 43 -13z"/>
<path d="M1131 7371 c-17 -17 -329 -532 -509 -842 -66 -113 -73 -141 -47 -203
23 -55 534 -899 553 -914 12 -10 34 -12 77 -7 74 8 415 80 498 105 290 87 498
146 642 180 197 46 238 63 270 104 38 50 275 565 275 597 0 16 -38 107 -83
202 -46 96 -96 205 -111 243 -52 131 -129 208 -241 238 -27 8 -138 35 -245 61
-107 26 -292 76 -410 111 -280 82 -343 98 -473 123 -135 26 -172 26 -196 2z
m199 -16 c126 -25 288 -68 526 -140 122 -37 364 -100 522 -135 174 -38 244
-95 305 -248 20 -48 72 -162 116 -254 45 -92 81 -176 81 -187 0 -10 -57 -142
-127 -292 -162 -347 -152 -336 -339 -379 -166 -38 -244 -60 -554 -150 -314
-92 -660 -166 -712 -152 -20 5 -9 -14 -316 497 -129 214 -242 409 -250 432
-13 34 -14 49 -5 72 18 48 543 924 565 944 26 22 33 22 188 -8z"/>
<path d="M4442 7060 c-170 -61 -523 -310 -439 -310 6 0 28 5 47 10 86 25 283
61 485 90 264 37 265 37 265 54 0 12 -106 105 -177 154 -39 28 -108 29 -181 2z
m248 -71 c56 -44 100 -83 97 -85 -2 -2 -113 -20 -246 -39 -220 -32 -411 -68
-500 -94 -19 -6 -36 -9 -38 -7 -5 5 143 118 222 168 134 87 250 136 322 137
38 1 52 -7 143 -80z"/>
<path d="M8163 7036 c-100 -75 -147 -121 -141 -137 4 -11 43 -20 144 -33 214
-26 436 -65 543 -92 53 -14 101 -26 108 -27 34 -5 6 26 -91 105 -80 64 -145
106 -247 158 -126 63 -145 70 -198 70 -54 0 -64 -4 -118 -44z m304 -35 c76
-39 170 -95 208 -126 39 -30 88 -69 109 -85 21 -17 36 -30 33 -30 -3 0 -47 11
-99 25 -124 32 -225 50 -472 84 -114 15 -209 31 -213 34 -7 7 13 25 120 107
109 84 129 83 314 -9z"/>
<path d="M4800 7056 c0 -22 124 -122 195 -156 33 -16 141 -55 240 -86 177 -55
274 -72 282 -47 5 13 -98 76 -319 195 -159 86 -178 93 -310 103 -77 6 -88 5
-88 -9z m349 -82 c272 -144 384 -214 340 -214 -43 0 -433 122 -499 155 -48 25
-161 113 -167 130 -2 7 30 8 98 3 100 -7 103 -8 228 -74z"/>
<path d="M7850 7059 c-64 -11 -170 -60 -360 -166 -156 -88 -203 -120 -194
-135 4 -6 25 -8 53 -5 44 5 366 99 460 133 49 19 225 160 216 174 -7 12 -99
11 -175 -1z m155 -9 c-9 -14 -146 -125 -173 -139 -60 -32 -507 -159 -519 -147
-9 8 -14 4 135 90 261 150 352 188 472 199 73 7 91 7 85 -3z"/>
<path d="M6125 7013 c4 -26 16 -75 26 -110 16 -51 24 -64 45 -69 29 -7 54 10
54 38 0 38 -93 188 -118 188 -11 0 -13 -9 -7 -47z m64 -42 c54 -85 59 -102 37
-120 -31 -26 -50 1 -74 104 -19 79 -22 95 -18 95 2 0 27 -36 55 -79z"/>
<path d="M6632 7003 c-56 -83 -74 -121 -67 -143 9 -28 51 -37 75 -15 31 28 66
215 40 215 -5 0 -27 -26 -48 -57z m33 -57 c-17 -77 -42 -113 -70 -103 -18 7
-20 40 -3 70 32 60 82 130 85 120 3 -7 -3 -46 -12 -87z"/>
<path d="M5215 7040 c-11 -17 4 -30 124 -108 64 -41 159 -103 212 -138 98 -64
140 -80 288 -107 68 -13 101 -9 101 15 0 5 -14 39 -30 73 -30 63 -31 64 -132
115 -132 68 -275 116 -416 141 -131 22 -139 22 -147 9z m185 -30 c123 -25 247
-68 370 -129 94 -47 95 -48 127 -112 18 -35 28 -68 23 -73 -4 -4 -41 -3 -82 4
-153 26 -183 40 -400 183 -115 75 -208 139 -208 142 0 11 76 4 170 -15z"/>
<path d="M7442 7030 c-113 -26 -309 -94 -408 -141 -89 -42 -125 -79 -151 -155
-23 -68 -14 -71 121 -41 140 31 215 67 366 176 63 46 146 99 183 118 38 19 67
39 64 46 -6 19 -84 17 -175 -3z m98 -34 c-36 -19 -114 -70 -175 -115 -164
-120 -277 -169 -435 -188 l-50 -6 15 42 c33 95 70 122 258 196 156 61 317 103
392 104 l60 0 -65 -33z"/>
<path d="M2734 6896 c-6 -16 170 -398 191 -416 10 -8 18 -4 32 17 34 48 103
180 103 195 0 22 -34 49 -150 120 -153 94 -169 102 -176 84z m172 -97 c73 -44
135 -87 138 -96 4 -9 -13 -51 -38 -97 -77 -141 -63 -145 -156 49 -112 232
-114 239 -93 231 10 -4 77 -43 149 -87z"/>
<path d="M9926 6821 c-82 -49 -156 -97 -165 -105 -15 -15 -12 -23 29 -102 25
-46 55 -97 67 -112 22 -27 22 -27 41 -7 31 32 197 394 186 405 -6 6 -64 -23
-158 -79z m88 -68 c-36 -76 -78 -163 -92 -193 -15 -30 -33 -55 -41 -55 -8 0
-38 43 -67 95 -44 77 -51 97 -41 107 16 16 289 183 299 183 4 0 -22 -62 -58
-137z"/>
<path d="M4700 6823 c-159 -16 -588 -94 -685 -124 -55 -17 -78 -31 -119 -72
-82 -82 -124 -194 -104 -279 25 -113 101 -212 195 -255 90 -41 640 -123 828
-123 l86 0 91 86 c108 103 214 174 377 253 130 63 154 78 145 93 -3 5 -70 40
-147 78 -181 88 -248 133 -363 241 -116 109 -145 118 -304 102z m200 -30 c14
-9 59 -49 100 -88 94 -91 194 -156 366 -239 74 -37 133 -70 129 -75 -3 -5 -65
-39 -138 -74 -170 -84 -262 -146 -377 -253 l-93 -87 -115 7 c-144 9 -301 28
-542 66 -223 36 -291 64 -352 145 -53 70 -82 152 -76 218 10 116 106 241 209
272 73 21 311 69 494 99 186 29 359 34 395 9z"/>
<path d="M7920 6813 c-8 -3 -52 -41 -97 -85 -102 -96 -225 -178 -389 -258 -95
-46 -124 -65 -122 -78 2 -11 60 -45 153 -92 183 -92 220 -117 346 -236 75 -71
107 -95 135 -100 119 -22 703 67 886 136 108 40 193 168 193 290 0 134 -98
270 -226 316 -24 8 -165 35 -314 60 -205 35 -304 47 -410 50 -77 2 -147 1
-155 -3z m293 -18 c289 -43 548 -89 594 -107 110 -41 208 -183 207 -300 -1
-74 -47 -170 -108 -226 -67 -62 -216 -102 -582 -156 -236 -35 -331 -42 -380
-26 -25 9 -70 43 -125 96 -102 98 -220 177 -373 249 -63 30 -117 59 -120 64
-4 5 53 39 125 75 168 84 278 157 382 255 45 43 89 81 97 84 30 11 182 7 283
-8z"/>
<path d="M5104 6788 c-17 -27 82 -91 321 -205 273 -132 298 -138 389 -101 33
13 61 29 63 35 2 6 -35 38 -84 71 -159 106 -166 109 -303 127 -135 17 -268 45
-326 70 -44 18 -51 18 -60 3z m334 -78 c81 -12 157 -23 168 -25 26 -6 254
-154 254 -165 0 -15 -95 -45 -140 -44 -84 1 -600 262 -600 303 0 4 39 -6 86
-21 47 -15 152 -37 232 -48z"/>
<path d="M7575 6769 c-60 -16 -159 -36 -219 -44 -126 -17 -174 -37 -311 -126
-65 -42 -95 -67 -93 -78 5 -27 105 -62 163 -57 56 5 241 76 355 137 112 60
235 151 235 173 0 11 -4 21 -10 22 -5 2 -59 -10 -120 -27z m95 -20 c-98 -84
-304 -194 -467 -249 -81 -27 -97 -29 -137 -20 -58 13 -96 30 -96 45 0 14 157
116 233 150 36 17 87 29 144 35 48 5 138 23 198 39 61 16 121 29 135 30 24 0
24 -1 -10 -30z"/>
<path d="M3103 6656 c-10 -13 -45 -78 -78 -145 l-60 -123 60 -115 c65 -127 90
-163 109 -163 14 0 303 194 348 234 37 32 36 65 -4 103 -43 40 -327 233 -344
233 -7 0 -21 -11 -31 -24z m225 -115 c82 -58 155 -113 161 -123 7 -11 9 -28 6
-38 -8 -24 -331 -250 -357 -250 -21 0 -40 29 -108 163 -33 65 -47 103 -42 115
21 49 116 229 129 244 19 22 18 23 211 -111z"/>
<path d="M5745 6669 c-9 -14 0 -22 103 -86 63 -40 78 -45 100 -37 32 11 39 37
18 68 -11 18 -33 28 -93 41 -43 9 -88 19 -99 22 -12 2 -25 -1 -29 -8z m125
-27 c60 -14 77 -22 87 -42 11 -21 10 -27 -4 -37 -9 -7 -20 -13 -24 -13 -7 0
-159 97 -174 112 -6 6 -1 7 15 3 14 -3 59 -14 100 -23z"/>
<path d="M6973 6665 c-34 -7 -75 -20 -90 -27 -48 -23 -39 -88 11 -88 12 0 59
23 104 51 112 69 103 92 -25 64z m86 -8 c-18 -15 -100 -67 -127 -81 -38 -19
-72 -13 -72 13 0 29 21 40 111 60 74 16 102 18 88 8z"/>
<path d="M9519 6579 c-228 -155 -249 -178 -196 -226 28 -27 315 -222 345 -236
30 -14 38 -5 101 113 91 173 89 151 24 277 -72 140 -89 163 -117 163 -12 0
-83 -41 -157 -91z m183 64 c24 -28 128 -231 128 -249 0 -20 -118 -250 -136
-264 -20 -17 -384 233 -384 264 0 7 12 24 28 38 36 35 322 228 337 228 7 0 19
-8 27 -17z"/>
<path d="M3794 6631 c-33 -20 -57 -71 -47 -97 10 -27 33 -10 74 54 33 51 36
62 22 62 -10 0 -32 -9 -49 -19z m15 -38 c-12 -21 -28 -45 -36 -53 -11 -12 -13
-10 -13 13 0 16 10 38 25 52 36 37 50 30 24 -12z"/>
<path d="M8980 6638 c0 -24 60 -118 75 -118 26 0 17 53 -16 93 -30 37 -59 49
-59 25z m80 -90 c-1 -23 -1 -23 -16 -3 -9 11 -24 38 -35 60 l-20 40 35 -37
c20 -21 36 -48 36 -60z"/>
<path d="M3676 6438 c-20 -29 -20 -67 0 -96 12 -18 19 -20 30 -11 19 16 28 76
15 105 -13 30 -25 30 -45 2z m39 -53 c-8 -44 -23 -53 -34 -22 -7 18 -7 36 1
58 10 30 12 31 25 13 9 -12 12 -30 8 -49z"/>
<path d="M9095 6426 c-25 -60 16 -130 45 -77 19 37 6 111 -21 111 -5 0 -16
-15 -24 -34z m45 -31 c0 -12 -6 -30 -14 -40 -13 -18 -14 -18 -21 4 -4 13 -4
39 0 59 6 35 8 36 21 17 8 -10 14 -28 14 -40z"/>
<path d="M5540 6266 c-184 -79 -287 -133 -372 -196 -68 -50 -86 -80 -48 -80
11 0 95 18 187 39 93 21 195 42 228 46 77 9 100 19 215 94 103 68 130 89 130
103 0 5 -24 20 -52 33 -83 39 -121 33 -288 -39z m291 24 c23 -12 37 -25 33
-29 -13 -12 -205 -136 -231 -149 -11 -7 -63 -18 -115 -26 -51 -8 -151 -28
-223 -45 -71 -17 -140 -33 -152 -36 -42 -10 -24 14 50 66 88 62 147 93 347
181 173 76 207 80 291 38z"/>
<path d="M7008 6309 c-78 -35 -74 -54 25 -121 116 -79 189 -106 344 -127 78
-11 176 -32 218 -46 85 -28 115 -31 115 -11 0 53 -293 224 -506 296 -103 35
-133 36 -196 9z m174 -15 c118 -37 295 -123 409 -199 141 -94 147 -112 22 -71
-77 25 -191 48 -310 61 -70 8 -168 51 -261 114 -73 49 -87 65 -70 79 14 11 96
41 115 42 7 0 49 -12 95 -26z"/>
<path d="M9862 6298 c-5 -7 -33 -57 -62 -110 -50 -95 -51 -97 -32 -116 23 -23
286 -182 301 -182 21 0 11 27 -75 211 -88 186 -100 209 -114 209 -4 0 -12 -6
-18 -12z m119 -202 c49 -104 88 -190 86 -192 -6 -6 -281 165 -291 180 -7 10
-2 30 19 68 57 106 78 139 87 136 6 -2 50 -89 99 -192z"/>
<path d="M2825 6106 c-93 -192 -106 -226 -85 -226 13 0 290 168 314 191 19 17
18 20 -40 121 -35 60 -66 104 -77 106 -14 3 -37 -35 -112 -192z m174 89 c29
-52 51 -101 48 -109 -6 -14 -286 -188 -297 -184 -4 2 32 84 79 183 94 196 99
205 109 205 4 0 31 -43 61 -95z"/>
<path d="M476 6257 c-9 -12 -58 -143 -111 -290 -186 -521 -215 -655 -235
-1055 -10 -197 -6 -242 19 -242 5 0 47 57 94 128 146 219 338 401 512 487 92
46 186 75 240 75 17 0 40 6 50 14 17 12 2 40 -251 451 -148 240 -276 441 -286
446 -13 7 -21 4 -32 -14z m301 -428 c144 -233 262 -429 263 -436 0 -6 -19 -14
-42 -18 -98 -14 -148 -29 -233 -70 -195 -94 -388 -277 -547 -520 -33 -49 -64
-91 -69 -93 -12 -5 -11 212 1 363 24 278 70 464 213 865 115 323 123 343 139
338 7 -3 131 -195 275 -429z"/>
<path d="M12287 6248 c-24 -33 -494 -794 -515 -834 -17 -32 0 -45 78 -55 154
-22 270 -72 370 -162 172 -153 266 -257 348 -382 89 -136 101 -150 115 -136 5
5 7 105 5 223 -6 238 -22 354 -88 613 -49 192 -106 368 -187 574 -82 212 -84
215 -126 159z m93 -108 c131 -329 217 -621 271 -925 23 -131 40 -525 22 -525
-5 0 -42 53 -82 118 -64 101 -94 138 -229 270 -86 84 -183 171 -216 193 -68
44 -183 84 -294 101 -63 10 -73 14 -69 30 3 9 123 209 268 443 212 345 265
423 275 413 7 -7 31 -60 54 -118z"/>
<path d="M3757 6263 c-23 -23 24 -113 59 -113 19 0 18 14 -5 59 -22 41 -44 64
-54 54z m37 -49 c9 -20 15 -39 12 -42 -8 -8 -45 41 -46 61 0 28 15 19 34 -19z"/>
<path d="M9006 6205 c-41 -75 -41 -75 -22 -75 24 0 87 82 84 109 -5 44 -25 33
-62 -34z m54 30 c0 -8 -14 -29 -31 -47 -33 -36 -34 -33 -4 25 19 38 35 48 35
22z"/>
<path d="M3373 6134 c-135 -92 -183 -131 -183 -146 0 -18 420 -614 444 -630
29 -19 34 21 39 378 l6 361 -46 82 c-28 49 -52 81 -62 81 -9 0 -98 -57 -198
-126z m248 39 c37 -65 44 -86 43 -128 -3 -254 -19 -675 -25 -673 -18 7 -441
609 -436 622 5 13 354 255 368 256 3 0 25 -35 50 -77z"/>
<path d="M9244 6239 c-24 -8 -51 -43 -83 -107 -22 -43 -22 -45 -14 -405 7
-321 10 -362 24 -365 21 -4 462 609 457 635 -3 15 -309 230 -350 245 -7 3 -23
2 -34 -3z m206 -122 c90 -62 165 -117 167 -122 4 -13 -431 -620 -443 -620 -5
0 -12 159 -16 354 -7 345 -6 355 14 395 34 67 67 106 91 105 12 0 96 -50 187
-112z"/>
<path d="M5822 6188 c-87 -57 -101 -78 -51 -78 41 0 148 28 177 46 24 16 29
53 10 72 -22 22 -54 12 -136 -40z m128 27 c23 -28 3 -51 -63 -68 -90 -24 -144
-32 -132 -19 17 17 159 102 171 102 6 0 17 -7 24 -15z"/>
<path d="M6860 6220 c-21 -21 -17 -43 12 -67 34 -29 208 -56 208 -33 0 20
-159 120 -190 120 -5 0 -19 -9 -30 -20z m134 -47 c37 -24 66 -47 63 -50 -9 -9
-168 29 -183 44 -19 19 -18 40 3 51 22 13 34 8 117 -45z"/>
<path d="M5767 6084 c-127 -28 -129 -29 -232 -109 -104 -81 -212 -150 -281
-181 -101 -45 -45 -67 99 -39 121 23 329 93 432 145 81 41 93 50 123 100 17
30 32 67 32 82 0 25 -3 28 -32 27 -18 0 -82 -11 -141 -25z m158 -11 c-12 -48
-49 -106 -82 -129 -42 -28 -183 -87 -295 -124 -126 -42 -329 -81 -327 -64 0 5
35 26 78 47 43 21 137 83 210 137 148 111 132 103 279 135 144 31 146 31 137
-2z"/>
<path d="M6892 6098 c-7 -7 -12 -20 -12 -30 0 -27 34 -89 62 -114 22 -20 276
-126 417 -173 72 -25 211 -47 235 -38 23 9 9 33 -26 48 -59 24 -188 107 -276
177 -102 81 -129 94 -271 122 -122 24 -114 23 -129 8z m158 -28 c58 -12 113
-26 123 -32 10 -5 73 -51 141 -102 67 -51 157 -110 199 -131 42 -21 77 -42 77
-47 0 -12 -79 -3 -165 18 -64 16 -346 120 -432 161 -43 20 -56 32 -77 75 -14
29 -26 57 -26 64 0 14 18 22 40 18 8 -2 62 -13 120 -24z"/>
<path d="M3721 6028 c-12 -33 -22 -675 -12 -723 8 -35 43 -73 273 -297 238
-233 287 -274 301 -250 10 15 48 215 62 329 19 144 44 243 96 386 23 60 38
114 36 121 -3 6 -75 46 -160 89 -98 48 -188 101 -244 144 -123 94 -314 223
-330 223 -8 0 -17 -10 -22 -22z m143 -64 c61 -42 131 -94 156 -114 74 -61 184
-128 316 -192 68 -33 126 -63 128 -67 3 -4 -11 -48 -29 -97 -57 -151 -84 -258
-105 -417 -25 -181 -52 -309 -67 -314 -6 -2 -131 114 -277 259 l-267 263 1
136 c0 270 13 619 23 619 5 0 59 -34 121 -76z"/>
<path d="M8969 5989 c-52 -34 -124 -85 -160 -114 -99 -80 -196 -140 -335 -207
-69 -34 -128 -67 -131 -74 -2 -7 14 -65 36 -128 54 -155 68 -213 91 -374 22
-157 47 -287 60 -319 5 -13 16 -23 25 -23 8 0 132 113 275 252 202 196 263
261 271 289 8 25 9 142 3 395 -8 315 -11 359 -25 362 -8 1 -58 -25 -110 -59z
m125 -321 c6 -284 4 -353 -7 -380 -14 -33 -515 -528 -535 -528 -11 0 -44 163
-71 351 -21 142 -47 244 -100 388 -17 47 -28 88 -24 92 5 4 76 41 158 83 90
45 184 102 235 141 152 118 323 228 330 213 4 -7 10 -169 14 -360z"/>
<path d="M3996 6031 c-15 -24 212 -186 370 -265 103 -51 172 -71 208 -62 34 8
226 162 226 181 0 17 -12 20 -135 35 -204 26 -537 86 -647 116 -9 3 -19 1 -22
-5z m199 -46 c127 -27 551 -95 591 -95 13 0 -22 -33 -108 -101 l-89 -71 -57 4
c-92 7 -310 125 -470 255 -30 24 -49 43 -44 43 6 0 85 -16 177 -35z"/>
<path d="M5450 6030 c-14 -4 -119 -36 -235 -69 -115 -34 -228 -71 -250 -81
-49 -24 -183 -145 -173 -155 4 -4 61 -3 127 2 117 11 121 12 208 61 48 27 149
82 223 122 142 76 177 101 166 119 -8 13 -30 13 -66 1z m40 -24 c-8 -8 -85
-51 -170 -97 -85 -46 -183 -99 -217 -119 -55 -33 -73 -38 -174 -48 -62 -7
-114 -10 -117 -8 -2 3 13 20 34 38 99 87 119 98 280 148 255 78 327 99 354 99
21 1 22 -1 10 -13z"/>
<path d="M7301 6027 c-16 -20 2 -33 164 -122 77 -43 176 -98 220 -122 75 -42
88 -46 200 -59 148 -17 159 -10 90 52 -119 106 -162 132 -243 150 -42 9 -151
39 -241 65 -90 27 -167 49 -171 49 -4 0 -13 -6 -19 -13z m212 -56 c89 -27 189
-54 222 -60 65 -12 122 -47 214 -131 l55 -50 -35 0 c-19 0 -71 5 -115 10 -76
10 -93 17 -275 117 -201 110 -269 150 -269 158 0 13 54 1 203 -44z"/>
<path d="M8760 6024 c-81 -26 -291 -65 -509 -95 -117 -16 -217 -32 -222 -35
-20 -12 -5 -32 75 -97 112 -90 134 -100 197 -92 92 13 292 123 451 249 102 80
105 100 8 70z m21 -32 c-96 -77 -217 -157 -315 -208 -93 -48 -119 -58 -176
-62 l-66 -4 -97 77 c-53 43 -97 81 -97 85 0 3 96 19 213 34 194 26 437 71 512
95 53 17 61 11 26 -17z"/>
<path d="M3089 5967 c-15 -7 -128 -77 -252 -157 l-226 -144 -44 -76 c-148
-249 -285 -536 -371 -772 -48 -134 -53 -157 -36 -189 13 -22 165 -101 324
-166 243 -100 698 -238 751 -228 16 3 144 31 284 63 206 46 256 60 267 77 11
17 4 77 -51 425 -35 223 -69 421 -74 440 -12 39 -495 706 -526 726 -16 10 -26
10 -46 1z m47 -15 c13 -8 485 -657 503 -690 12 -22 141 -810 141 -858 0 -13
-8 -27 -17 -33 -29 -15 -509 -121 -548 -121 -41 0 -321 78 -500 140 -250 87
-525 212 -545 250 -14 26 4 88 77 275 66 168 172 387 286 589 l84 149 239 153
c131 85 246 154 254 154 8 0 20 -4 26 -8z"/>
<path d="M9663 5948 c-29 -33 -468 -638 -492 -679 -14 -25 -37 -143 -86 -458
-60 -383 -65 -426 -51 -439 19 -20 324 -96 471 -118 131 -19 153 -17 359 42
346 99 752 268 793 330 16 25 15 30 -6 102 -82 278 -348 816 -461 932 -38 39
-118 95 -261 183 -113 70 -215 127 -226 127 -11 0 -29 -10 -40 -22z m98 -16
c24 -16 116 -72 204 -126 181 -111 220 -144 281 -237 143 -218 404 -802 404
-903 0 -40 -14 -53 -105 -99 -189 -94 -485 -204 -735 -273 -188 -51 -264 -47
-585 32 -179 44 -185 47 -185 81 0 54 121 808 134 839 14 30 459 648 499 692
26 28 34 28 88 -6z"/>
<path d="M6170 5941 c-15 -29 -51 -193 -46 -208 10 -25 25 -12 80 73 56 87 66
120 44 142 -19 19 -66 15 -78 -7z m70 -6 c10 -12 10 -22 2 -40 -16 -36 -96
-155 -103 -155 -8 0 28 165 42 191 12 23 42 25 59 4z"/>
<path d="M6577 5942 c-26 -28 -21 -47 34 -133 76 -117 96 -104 63 43 -22 97
-60 132 -97 90z m72 -44 c15 -51 33 -149 28 -154 -6 -7 -57 67 -85 122 -19 37
-20 43 -6 63 20 28 49 14 63 -31z"/>
<path d="M6031 5897 c-59 -29 -68 -38 -103 -102 -81 -150 -133 -304 -163 -483
-14 -80 -15 -106 -6 -115 16 -16 34 7 100 125 28 51 76 122 107 158 30 36 66
89 80 119 34 70 84 290 72 314 -11 22 -12 22 -87 -16z m79 4 c0 -22 -40 -201
-55 -246 -22 -64 -47 -107 -106 -175 -26 -30 -74 -102 -106 -159 -33 -58 -64
-106 -70 -108 -6 -2 -7 18 -2 59 22 163 88 366 167 513 33 61 45 73 92 98 55
28 80 34 80 18z"/>
<path d="M6700 5915 c-10 -12 -8 -36 9 -120 31 -152 46 -185 152 -325 52 -69
109 -155 127 -191 55 -113 81 -113 69 -1 -10 93 -52 244 -108 383 -67 167 -96
211 -161 243 -60 30 -71 31 -88 11z m90 -25 c52 -26 80 -71 142 -221 71 -174
140 -459 111 -459 -5 0 -20 22 -32 50 -29 64 -103 176 -175 265 -31 39 -65 93
-75 121 -22 57 -61 251 -53 259 11 10 44 4 82 -15z"/>
<path d="M6258 5843 c-30 -35 -96 -139 -127 -201 -24 -47 -35 -90 -46 -170
-21 -149 -33 -206 -62 -291 -18 -52 -22 -76 -14 -84 37 -37 216 255 300 493
35 97 38 136 14 200 -27 73 -39 83 -65 53z m56 -71 l20 -62 -28 -88 c-16 -48
-52 -138 -82 -201 -76 -161 -204 -350 -204 -301 0 5 11 42 24 82 14 40 34 138
46 218 18 131 25 154 65 235 51 103 111 188 128 182 6 -2 20 -31 31 -65z"/>
<path d="M6501 5808 c-11 -29 -23 -66 -27 -83 -11 -60 112 -350 214 -505 67
-101 100 -136 115 -121 8 8 1 55 -26 178 -21 93 -44 203 -52 247 -8 43 -24 97
-34 120 -28 62 -134 210 -152 214 -11 2 -23 -13 -38 -50z m106 -51 c76 -114
87 -138 108 -252 9 -49 32 -157 51 -239 19 -82 32 -151 30 -154 -10 -9 -28 13
-90 106 -109 163 -233 453 -220 510 9 38 45 122 53 122 3 0 34 -42 68 -93z"/>
<path d="M7047 5764 c-13 -13 -7 -42 38 -175 59 -179 76 -260 82 -409 2 -69 9
-138 15 -153 32 -83 576 -500 728 -558 159 -60 349 26 410 186 30 81 32 192 3
255 -24 54 -218 340 -312 460 -97 125 -208 237 -244 249 -18 5 -84 12 -147 14
-163 7 -291 38 -556 134 -5 2 -13 0 -17 -3z m172 -64 c170 -58 287 -80 418
-80 56 0 106 -5 126 -14 41 -17 162 -144 258 -271 118 -156 284 -406 299 -449
18 -54 9 -179 -17 -238 -45 -101 -142 -172 -253 -185 -101 -12 -181 26 -425
200 -177 126 -303 228 -380 306 l-59 61 -7 153 c-8 166 -37 304 -98 462 -34
86 -37 105 -20 105 7 0 77 -22 158 -50z"/>
<path d="M5610 5719 c-187 -65 -260 -80 -423 -86 l-149 -6 -54 -49 c-107 -99
-391 -478 -469 -629 -53 -102 -61 -147 -45 -231 32 -172 163 -274 340 -266 93
4 109 12 335 168 204 141 315 227 409 317 84 81 99 113 90 196 -11 104 13 235
76 431 33 99 57 183 54 188 -9 15 -48 7 -164 -33z m150 18 c0 -7 -23 -80 -50
-162 -60 -177 -80 -282 -80 -422 0 -72 -5 -113 -15 -132 -30 -59 -248 -234
-540 -433 -162 -111 -218 -134 -305 -125 -66 7 -172 51 -209 87 -44 43 -75
127 -79 216 -4 77 -2 86 32 153 70 140 348 521 460 631 l66 65 158 7 c171 7
228 19 422 86 129 45 140 47 140 29z"/>
<path d="M4767 5609 c-137 -18 -166 -30 -198 -82 -64 -105 -169 -587 -127
-587 12 0 440 603 462 651 6 12 6 23 0 27 -5 5 -66 1 -137 -9z m131 -7 c-7
-18 -443 -641 -449 -642 -19 -1 37 294 82 435 32 101 57 147 92 170 34 22 283
55 275 37z"/>
<path d="M7910 5615 c-8 -10 -4 -21 18 -47 16 -18 117 -162 226 -320 108 -158
201 -290 207 -294 20 -12 21 5 9 113 -13 123 -27 185 -76 333 -58 179 -76 196
-215 210 -52 6 -108 12 -126 14 -19 3 -36 -1 -43 -9z m151 -16 c58 -5 114 -17
127 -25 36 -24 59 -70 103 -204 53 -166 95 -421 64 -388 -7 7 -99 139 -205
293 -105 154 -200 289 -211 301 -36 39 -33 39 122 23z"/>
<path d="M10317 5614 c-14 -15 -5 -37 74 -181 92 -167 121 -231 238 -525 46
-114 89 -212 97 -219 19 -15 106 28 310 154 160 99 289 193 416 301 115 98
130 131 70 155 -15 6 -121 31 -237 56 -227 50 -251 56 -460 120 -77 24 -216
64 -310 90 -93 26 -174 49 -180 51 -6 3 -14 1 -18 -2z m220 -69 c106 -30 266
-77 355 -104 90 -27 258 -70 373 -95 263 -58 275 -62 275 -88 0 -46 -272 -258
-543 -424 -158 -97 -241 -138 -261 -131 -8 3 -44 83 -81 179 -99 252 -163 394
-254 560 -45 81 -81 150 -81 153 0 11 31 4 217 -50z"/>
<path d="M2432 5594 c-40 -17 -171 -54 -300 -84 -50 -12 -163 -44 -250 -71
-198 -63 -323 -95 -437 -114 -140 -24 -145 -25 -161 -50 -14 -22 -14 -27 3
-55 19 -34 159 -152 282 -240 180 -128 475 -294 513 -288 19 2 32 25 76 133
142 346 220 521 284 637 82 149 80 171 -10 132z m58 -5 c0 -7 -29 -64 -64
-128 -59 -107 -143 -296 -278 -626 -31 -75 -60 -131 -68 -133 -21 -4 -274 136
-420 233 -150 99 -339 250 -360 288 -24 43 -6 60 81 75 134 24 321 71 504 128
99 30 237 69 307 85 69 16 162 42 205 58 93 34 93 34 93 20z"/>
<path d="M5962 5408 c-33 -57 -94 -166 -135 -243 -72 -132 -77 -145 -87 -230
-13 -122 -13 -155 3 -155 20 0 137 148 162 205 36 81 147 462 143 491 -2 15
-8 29 -14 31 -7 2 -39 -42 -72 -99z m74 48 c-10 -53 -124 -423 -144 -469 -21
-46 -129 -187 -144 -187 -6 0 -7 17 -4 38 3 20 8 69 11 107 5 58 15 87 57 165
89 170 212 380 221 380 5 0 6 -15 3 -34z"/>
<path d="M6766 5502 c-6 -11 47 -218 104 -402 40 -129 45 -139 113 -222 38
-49 76 -88 84 -88 16 0 18 90 3 171 -10 60 -125 296 -218 448 -55 92 -74 112
-86 93z m112 -162 c130 -229 171 -324 183 -422 6 -48 9 -95 7 -105 -2 -11 -25
11 -74 70 -68 84 -71 91 -114 229 -57 189 -100 348 -100 373 0 19 0 19 13 0 8
-11 46 -76 85 -145z"/>
<path d="M6390 5483 c-5 -10 -38 -74 -71 -143 -79 -163 -136 -246 -231 -343
-43 -43 -86 -93 -96 -110 -25 -47 -20 -183 18 -432 59 -394 92 -506 171 -580
52 -49 135 -92 194 -102 73 -12 217 49 279 117 64 72 72 97 141 495 21 121 45
337 45 407 0 80 -12 103 -94 188 -109 113 -153 178 -241 353 -44 88 -85 162
-92 164 -7 3 -17 -4 -23 -14z m84 -118 c78 -167 159 -289 255 -385 100 -100
105 -113 91 -286 -19 -232 -95 -667 -129 -732 -55 -106 -226 -195 -331 -171
-72 16 -159 69 -200 122 -29 36 -65 144 -90 268 -36 177 -80 500 -80 590 0 77
3 89 29 130 16 24 57 71 91 104 79 76 160 199 236 360 32 69 61 125 65 125 3
0 31 -56 63 -125z"/>
<path d="M3714 5165 c-9 -22 -1 -72 62 -425 62 -345 60 -336 78 -343 21 -8
425 77 440 93 13 13 12 25 -4 93 -10 44 -26 89 -34 102 -22 33 -504 489 -521
493 -8 2 -18 -4 -21 -13z m368 -326 l177 -174 17 -78 c13 -56 15 -80 7 -88
-11 -11 -369 -88 -410 -89 -25 0 -20 -17 -82 325 -64 352 -72 407 -66 422 6
18 96 -62 357 -318z"/>
<path d="M8948 5063 c-241 -229 -397 -387 -407 -412 -24 -62 -42 -154 -32
-164 10 -10 396 -87 439 -87 14 0 26 8 32 23 8 19 65 332 115 625 16 97 14
132 -10 132 -8 0 -69 -53 -137 -117z m139 24 c-24 -165 -118 -662 -126 -670
-6 -6 -61 1 -148 17 -76 15 -165 32 -198 37 -95 16 -106 23 -95 56 5 15 16 54
25 87 16 56 23 65 173 210 355 342 363 350 371 337 4 -6 4 -40 -2 -74z"/>
<path d="M5305 4680 c-170 -122 -317 -227 -325 -235 -12 -13 -4 -15 65 -15
144 0 456 85 520 142 43 37 53 68 64 203 9 105 8 125 -7 125 -4 0 -146 -99
-317 -220z m321 178 c-3 -13 -8 -57 -11 -98 -13 -163 -35 -189 -206 -243 -63
-20 -143 -43 -179 -51 -80 -19 -238 -32 -227 -20 21 22 603 433 615 433 8 1
11 -7 8 -21z"/>
<path d="M7177 4893 c-11 -17 30 -262 47 -288 24 -36 67 -60 171 -95 134 -44
240 -69 335 -80 111 -13 120 -13 120 3 0 14 -619 456 -650 464 -10 3 -20 1
-23 -4z m342 -228 l312 -220 -49 -3 c-94 -6 -417 77 -499 127 -49 31 -62 59
-78 172 -17 119 -18 152 -7 147 5 -1 149 -102 321 -223z"/>
<path d="M6891 4723 c-6 -38 -22 -153 -37 -258 -14 -104 -43 -257 -64 -340
-22 -82 -38 -151 -36 -152 19 -19 144 134 231 282 115 195 134 284 81 366 -42
64 -136 169 -151 169 -8 0 -17 -25 -24 -67z m160 -103 c27 -40 30 -51 27 -105
-5 -70 -55 -181 -138 -310 -57 -87 -160 -219 -166 -212 -2 2 5 37 16 78 40
149 50 200 85 443 19 137 35 253 35 260 1 15 103 -96 141 -154z"/>
<path d="M5822 4707 c-92 -112 -105 -138 -100 -200 8 -92 148 -344 268 -479
48 -55 66 -61 56 -20 -4 15 -35 193 -70 397 -49 289 -65 371 -77 373 -9 2 -41
-28 -77 -71z m138 -292 c28 -176 57 -341 64 -367 8 -27 11 -48 7 -48 -22 2
-188 247 -248 369 -39 78 -47 105 -48 151 0 60 4 68 114 199 39 46 46 50 52
35 4 -11 31 -163 59 -339z"/>
<path d="M4398 4745 c-8 -8 3 -96 14 -117 13 -26 38 -22 38 5 0 30 -29 117
-39 117 -4 0 -10 -2 -13 -5z m38 -120 c-6 -16 -26 43 -25 73 1 22 4 19 15 -18
8 -25 12 -49 10 -55z"/>
<path d="M8386 4708 c-7 -18 -16 -45 -20 -60 -5 -23 -3 -28 14 -28 30 0 51 39
43 83 -7 46 -20 47 -37 5z m10 -67 c-15 -14 -16 -14 -16 0 0 9 6 31 13 50 l12
34 3 -34 c2 -21 -2 -40 -12 -50z"/>
<path d="M1942 4620 c-32 -14 -142 -112 -142 -127 0 -17 166 -17 197 0 23 13
56 52 66 79 13 36 -70 69 -121 48z m92 -16 c20 -8 20 -28 0 -60 -27 -40 -65
-54 -150 -54 l-77 0 19 21 c10 12 41 39 67 60 48 39 97 50 141 33z"/>
<path d="M10795 4623 c-59 -15 -59 -49 1 -102 47 -41 47 -41 130 -41 45 0 85
4 88 8 6 10 -39 55 -107 106 -46 34 -67 40 -112 29z m80 -21 c17 -11 53 -40
80 -66 l50 -47 -83 5 c-86 6 -116 19 -150 67 -17 25 -3 46 36 52 15 2 29 5 32
5 3 1 19 -6 35 -16z"/>
<path d="M4437 4543 c-25 -25 48 -123 91 -123 37 0 33 17 -19 74 -51 56 -60
62 -72 49z m63 -58 c24 -24 41 -47 38 -51 -11 -10 -64 27 -82 56 -33 56 -14
54 44 -5z"/>
<path d="M10618 4540 c-47 -28 -649 -263 -730 -286 -124 -34 -148 -44 -148
-60 0 -8 36 -32 79 -54 44 -22 118 -64 164 -94 47 -30 168 -99 269 -152 232
-122 341 -187 447 -263 97 -70 125 -81 149 -57 46 45 -11 458 -109 793 -53
181 -68 203 -121 173z m60 -25 c19 -42 78 -251 107 -380 37 -165 65 -364 65
-461 0 -126 -17 -129 -155 -24 -81 62 -196 129 -433 254 -100 53 -232 127
-292 165 -61 38 -135 79 -165 92 -30 12 -55 26 -55 31 0 4 26 15 58 23 129 36
223 71 527 194 176 72 323 130 326 131 3 0 11 -11 17 -25z"/>
<path d="M2117 4508 c-20 -43 -98 -355 -133 -533 -22 -111 -28 -170 -28 -285
-1 -138 0 -145 19 -148 12 -2 77 36 165 96 171 117 649 393 863 498 42 21 77
44 77 51 0 18 -18 25 -220 88 -217 67 -308 101 -520 195 -86 39 -168 70 -182
70 -19 0 -30 -8 -41 -32z m189 -37 c203 -92 346 -146 544 -207 102 -31 194
-61 204 -66 16 -9 1 -20 -100 -72 -112 -58 -216 -116 -494 -274 -63 -35 -197
-119 -298 -185 -146 -96 -185 -118 -193 -106 -21 34 -4 258 36 449 36 174 103
445 119 485 10 23 22 35 34 35 11 0 77 -26 148 -59z"/>
<path d="M8305 4490 c-41 -41 -46 -51 -36 -64 12 -14 16 -14 41 -1 37 19 70
62 70 91 0 36 -21 29 -75 -26z m53 4 c-15 -31 -64 -71 -75 -61 -4 4 13 27 37
52 48 49 59 51 38 9z"/>
<path d="M5475 4429 c-145 -54 -232 -75 -373 -94 -64 -8 -166 -25 -227 -38
-94 -19 -110 -25 -113 -42 -2 -14 70 -94 255 -284 255 -261 259 -264 308 -271
82 -13 712 1 732 16 16 11 11 21 -49 111 -36 55 -105 151 -152 214 -61 79
-111 161 -165 269 -42 85 -84 156 -92 157 -8 1 -63 -16 -124 -38z m180 -76
c60 -126 122 -232 185 -313 64 -82 210 -297 210 -308 0 -8 -378 -22 -634 -22
l-121 -1 -263 267 c-145 146 -261 271 -259 277 4 14 127 40 317 67 158 22 283
53 400 99 115 45 111 46 165 -66z"/>
<path d="M7184 4433 c-41 -100 -131 -266 -183 -338 -133 -180 -244 -341 -249
-357 -2 -9 4 -20 15 -26 29 -15 712 -23 749 -9 37 14 544 527 544 551 0 22
-108 47 -352 81 -135 18 -242 46 -379 96 -58 21 -112 39 -118 39 -7 0 -19 -17
-27 -37z m142 -14 c125 -47 262 -84 349 -94 88 -9 348 -56 364 -65 18 -10
-492 -538 -528 -547 -33 -8 -734 6 -743 15 -8 8 95 162 203 304 64 83 140 206
169 273 48 108 70 155 73 155 2 0 53 -19 113 -41z"/>
<path d="M11311 4430 c-36 -11 -68 -25 -72 -32 -11 -17 48 -126 72 -133 24 -8
94 11 114 31 11 11 13 26 8 57 -16 105 -20 107 -122 77z m103 -37 c14 -91 -1
-113 -79 -113 -31 0 -37 5 -60 50 -14 27 -25 53 -25 58 0 11 93 40 131 41 23
1 27 -4 33 -36z"/>
<path d="M1385 4410 c-31 -59 -8 -113 64 -149 47 -24 60 -17 100 54 45 79 42
89 -27 109 -89 25 -119 22 -137 -14z m148 -2 c20 -6 37 -16 37 -22 0 -24 -67
-121 -86 -124 -10 -1 -36 11 -56 28 -31 25 -38 38 -38 66 0 20 5 45 11 56 9
17 17 19 52 14 23 -4 59 -12 80 -18z"/>
<path d="M4635 4429 c-14 -21 26 -49 71 -49 54 0 65 16 22 34 -53 21 -86 27
-93 15z m89 -29 c17 -17 -48 -12 -70 6 -18 14 -17 15 20 10 22 -3 44 -10 50
-16z"/>
<path d="M8108 4424 c-56 -17 -61 -31 -15 -39 47 -9 106 17 107 48 0 11 -40 7
-92 -9z m72 -3 c0 -13 -67 -34 -82 -25 -7 5 3 12 28 20 51 15 54 16 54 5z"/>
<path d="M4120 4334 c-195 -36 -227 -45 -236 -68 -3 -7 16 -77 41 -155 53
-163 40 -150 213 -205 119 -37 155 -37 165 1 27 94 77 356 77 399 0 28 -33 64
-57 63 -10 0 -101 -16 -203 -35z m238 -43 c3 -50 -46 -318 -69 -378 -11 -31
-34 -30 -154 8 -157 49 -148 40 -195 185 -50 157 -50 171 -7 179 17 3 100 19
182 35 83 16 170 28 195 27 l45 -2 3 -54z"/>
<path d="M8457 4352 c-26 -28 -21 -97 18 -286 35 -171 45 -196 74 -196 32 0
263 79 282 96 22 20 111 287 103 309 -7 19 -6 18 -229 60 -220 41 -226 41
-248 17z m253 -33 c216 -40 210 -38 210 -59 0 -35 -80 -267 -98 -283 -15 -14
-184 -73 -264 -92 -31 -8 -30 -10 -72 190 -43 210 -45 269 -8 278 22 5 35 3
232 -34z"/>
<path d="M4492 4298 c-11 -14 -82 -391 -82 -438 0 -16 4 -32 10 -35 15 -9 488
-93 624 -111 106 -14 120 -14 134 0 14 13 5 26 -81 118 -52 57 -167 176 -254
266 l-158 164 -75 19 c-41 11 -82 22 -91 24 -9 3 -21 0 -27 -7z m108 -29 c41
-11 86 -30 99 -42 66 -61 471 -490 471 -499 0 -8 -26 -9 -82 -5 -100 8 -649
105 -662 118 -8 7 58 419 71 442 6 11 22 9 103 -14z"/>
<path d="M8235 4285 c-5 -2 -30 -9 -54 -15 -53 -14 -91 -49 -368 -338 -160
-167 -192 -206 -183 -218 7 -8 22 -14 34 -13 21 0 21 0 -1 9 -13 5 -23 13 -23
17 1 12 469 496 494 510 30 17 164 48 173 40 3 -4 26 -101 49 -215 32 -157 39
-210 31 -219 -7 -6 -158 -37 -337 -68 -179 -31 -334 -61 -345 -66 -29 -13 29
-4 375 58 172 31 311 60 319 68 11 11 7 45 -28 220 -23 113 -44 212 -48 220
-5 14 -61 20 -88 10z"/>
<path d="M8994 4252 c-12 -7 -74 -206 -74 -235 0 -9 4 -18 10 -22 15 -9 440
146 440 161 0 14 -1 14 -217 68 -161 41 -145 38 -159 28z m199 -51 c87 -21
160 -41 162 -43 6 -6 -390 -148 -411 -148 -11 0 -15 6 -11 18 61 213 60 212
81 212 12 0 92 -18 179 -39z"/>
<path d="M3612 4211 c-84 -21 -155 -41 -159 -45 -4 -3 -1 -12 5 -18 17 -17
414 -158 425 -151 13 8 1 83 -26 173 -22 74 -23 75 -57 77 -19 1 -104 -15
-188 -36z m217 7 c17 -46 53 -200 47 -205 -3 -4 -72 18 -153 46 -223 80 -255
92 -249 98 7 7 305 82 329 82 10 1 21 -9 26 -21z"/>
<path d="M670 4196 c-92 -17 -158 -39 -231 -78 -117 -62 -169 -127 -169 -214
0 -40 5 -51 38 -84 87 -87 195 -80 406 28 121 61 211 140 279 242 47 70 47 86
0 100 -62 18 -240 21 -323 6z m270 -11 c74 -8 86 -16 69 -46 -24 -46 -99 -137
-151 -184 -64 -58 -245 -150 -334 -171 -92 -21 -150 -9 -206 44 -108 100 16
258 259 332 72 22 221 40 278 34 17 -2 55 -6 85 -9z"/>
<path d="M11865 4199 c-78 -13 -92 -27 -71 -65 86 -163 310 -322 507 -360 110
-21 151 -14 200 35 124 124 -13 302 -286 371 -94 24 -265 33 -350 19z m313
-24 c151 -31 287 -106 329 -181 34 -60 31 -124 -8 -169 -43 -49 -87 -59 -182
-41 -189 37 -376 157 -482 310 -59 87 -51 92 157 94 70 1 144 -4 186 -13z"/>
<path d="M9450 4121 c-194 -66 -536 -193 -548 -204 -20 -16 -29 -39 -138 -345
-59 -166 -94 -277 -94 -302 0 -50 15 -79 181 -362 72 -122 186 -320 252 -438
117 -208 257 -431 300 -477 11 -13 31 -23 44 -23 13 0 167 36 341 81 663 169
736 189 759 212 17 17 51 134 159 559 85 335 134 545 131 560 -8 32 -345 252
-517 338 -175 87 -354 189 -495 280 -215 139 -271 157 -375 121z m200 -31 c32
-16 110 -63 172 -104 125 -82 321 -192 507 -286 150 -75 501 -303 501 -326 0
-9 -6 -39 -14 -67 -8 -29 -70 -268 -136 -532 -95 -372 -127 -485 -143 -502
-16 -16 -84 -38 -257 -82 -535 -139 -833 -211 -850 -206 -24 8 -175 241 -300
465 -57 102 -170 298 -250 435 -173 295 -200 345 -200 381 0 48 201 610 228
636 9 9 141 62 292 117 321 116 351 121 450 71z"/>
<path d="M3190 4111 c-25 -9 -79 -40 -120 -68 -117 -78 -277 -171 -504 -293
-115 -61 -218 -117 -230 -124 -104 -64 -316 -203 -333 -219 -13 -11 -23 -32
-23 -45 0 -24 251 -1028 269 -1075 5 -12 15 -28 23 -34 30 -25 1029 -283 1096
-283 17 0 37 9 48 23 47 53 233 353 379 612 87 154 196 344 242 423 96 162
113 199 113 241 0 50 -200 616 -228 643 -18 18 -91 46 -400 154 -202 70 -251
77 -332 45z m237 -27 c242 -81 469 -166 485 -182 29 -29 210 -548 216 -618 5
-67 -3 -86 -80 -212 -23 -37 -126 -218 -231 -402 -218 -385 -402 -677 -432
-686 -46 -12 -1075 252 -1107 284 -11 11 -55 167 -123 432 -58 228 -120 472
-137 541 -29 113 -31 129 -18 144 15 18 173 124 303 204 38 23 157 89 265 147
237 128 359 198 472 274 182 122 221 130 387 74z"/>
<path d="M4014 3866 c-6 -14 114 -370 136 -406 20 -32 37 5 73 156 20 88 37
169 37 181 0 19 -11 26 -82 47 -124 37 -157 42 -164 22z m169 -37 c44 -13 67
-25 67 -35 0 -8 -14 -70 -31 -137 -46 -186 -50 -199 -55 -194 -11 11 -144 390
-139 397 5 9 57 -1 158 -31z"/>
<path d="M8745 3875 c-5 -1 -47 -13 -93 -25 -54 -15 -86 -29 -93 -41 -7 -14
-1 -56 22 -151 17 -73 35 -148 39 -167 10 -40 26 -59 39 -45 11 12 151 401
151 420 0 13 -37 18 -65 9z m52 -17 c-2 -7 -35 -100 -73 -205 -38 -106 -72
-193 -76 -193 -9 0 -86 322 -81 337 6 14 19 20 118 48 93 27 119 30 112 13z"/>
<path d="M6598 3800 c-61 -32 -76 -46 -61 -61 23 -23 133 42 133 78 0 18 -7
16 -72 -17z m24 -20 c-27 -26 -72 -41 -72 -25 0 5 91 54 100 54 3 0 -10 -13
-28 -29z"/>
<path d="M6150 3812 c0 -11 50 -57 78 -72 26 -13 52 -7 52 12 0 7 -22 25 -49
41 -49 27 -81 35 -81 19z m82 -36 c42 -25 41 -43 -1 -21 -29 15 -59 45 -45 45
5 0 26 -11 46 -24z"/>
<path d="M8290 3769 c-25 -5 -193 -32 -375 -60 -240 -37 -342 -56 -375 -72
-80 -39 -700 -498 -706 -522 -4 -18 31 -81 153 -270 l158 -247 85 -50 c126
-76 408 -220 545 -279 144 -62 340 -129 377 -129 35 0 54 28 128 183 92 195
191 478 280 799 l21 77 -61 268 c-34 148 -68 278 -76 291 -12 18 -23 22 -62
21 -26 -1 -67 -5 -92 -10z m144 -21 c15 -25 127 -506 128 -548 0 -51 -131
-477 -207 -670 -52 -134 -158 -352 -179 -369 -14 -12 -27 -11 -94 8 -190 55
-597 241 -836 383 l-89 53 -159 248 c-88 136 -158 253 -155 261 6 15 648 486
698 511 17 9 184 40 372 70 188 29 365 58 392 63 86 17 113 14 129 -10z"/>
<path d="M4374 3759 c-11 -13 -71 -251 -110 -433 -24 -111 -15 -180 50 -405
71 -243 151 -454 241 -635 63 -127 73 -141 98 -144 54 -6 296 81 528 190 148
70 447 234 477 262 26 23 319 475 323 497 2 8 0 23 -4 34 -8 22 -647 490 -706
517 -20 9 -99 24 -176 33 -77 9 -234 32 -350 51 -265 44 -356 52 -371 33z
m386 -49 c129 -21 287 -43 350 -50 63 -7 129 -18 147 -26 18 -7 185 -124 373
-260 240 -175 340 -253 340 -266 0 -11 -52 -101 -117 -201 -64 -100 -133 -209
-154 -242 -35 -55 -49 -66 -146 -122 -286 -163 -552 -286 -774 -358 -64 -21
-123 -36 -131 -33 -32 13 -165 303 -244 533 -66 191 -144 471 -144 517 0 61
98 497 121 541 13 23 52 20 379 -33z"/>
<path d="M6382 3713 c-53 -10 -29 -63 28 -63 26 0 70 25 70 40 0 8 -57 31 -69
29 -3 -1 -16 -4 -29 -6z m71 -28 c2 -12 -59 -19 -81 -10 -14 6 -11 10 13 20
29 13 65 7 68 -10z"/>
<path d="M5860 3661 l-115 -6 190 -5 c205 -5 226 -10 293 -68 l32 -27 -121
-178 c-67 -98 -127 -181 -134 -184 -8 -2 -119 71 -248 164 -128 92 -264 189
-300 215 -37 27 -67 52 -67 58 0 6 60 10 163 10 89 0 169 5 177 10 10 6 -42
10 -156 10 -133 0 -174 -3 -190 -14 -19 -15 -19 -15 1 -34 11 -11 150 -113
309 -226 193 -138 296 -206 310 -204 15 2 59 59 143 183 68 99 123 185 123
192 0 16 -56 58 -112 82 -54 24 -140 31 -298 22z"/>
<path d="M6666 3644 c-22 -12 -55 -29 -72 -38 -51 -25 -59 -41 -38 -75 70
-113 230 -338 245 -345 11 -5 26 -5 37 0 10 5 150 103 310 218 193 139 292
216 292 227 0 26 -23 28 -399 32 -331 4 -333 4 -375 -19z m591 -4 c95 0 173
-4 173 -9 0 -11 -587 -432 -611 -438 -12 -4 -40 31 -107 130 -49 74 -104 153
-121 177 -36 50 -39 76 -10 85 12 4 43 21 68 37 l46 30 194 -6 c107 -3 272 -6
368 -6z"/>
<path d="M6367 3485 c-27 -27 -233 -324 -243 -350 -4 -8 0 -22 7 -31 22 -27
246 -134 281 -134 19 0 73 22 137 56 116 62 141 80 141 101 0 18 -193 304
-236 350 -38 40 -53 41 -87 8z m86 -25 c38 -44 227 -327 227 -339 0 -15 -243
-141 -271 -141 -36 1 -263 122 -267 142 -3 17 65 125 180 286 67 93 89 102
131 52z"/>
<path d="M1830 3289 c-73 -55 -153 -94 -242 -119 -164 -46 -468 -43 -696 6
-171 37 -174 31 -42 -102 219 -222 486 -407 845 -587 178 -89 412 -189 433
-185 10 2 18 14 20 29 3 21 -122 565 -210 917 -24 97 -30 100 -108 41z m80 27
c0 -2 52 -221 115 -487 63 -266 115 -491 115 -501 0 -10 -5 -18 -11 -18 -19 0
-288 119 -440 196 -237 118 -428 237 -615 382 -90 70 -304 277 -304 295 0 5
10 6 23 3 224 -67 584 -84 773 -36 92 23 222 86 279 135 34 29 65 44 65 31z"/>
<path d="M10903 3318 c-15 -19 -243 -987 -236 -1004 3 -8 16 -14 29 -14 25 0
514 228 654 305 115 63 317 198 417 280 105 84 303 281 303 300 0 20 -7 19
-135 -10 -162 -36 -375 -52 -517 -37 -189 20 -310 62 -428 151 -58 44 -72 48
-87 29z m88 -46 c137 -99 272 -141 489 -149 188 -7 394 16 560 64 22 6 20 1
-20 -47 -61 -73 -233 -227 -356 -319 -189 -140 -349 -228 -778 -428 -99 -45
-185 -83 -193 -83 -7 0 -13 8 -13 18 0 9 47 220 106 467 130 550 123 525 132
525 4 0 37 -22 73 -48z"/>
<path d="M8602 3071 c-7 -4 -32 -77 -57 -162 -48 -166 -102 -311 -214 -567
-39 -90 -71 -175 -71 -191 0 -27 4 -29 118 -64 125 -39 419 -108 541 -126 41
-7 122 -14 180 -18 95 -5 108 -4 130 14 17 14 22 25 17 41 -4 12 -62 104 -128
205 -66 100 -134 209 -150 242 -50 99 -330 609 -342 622 -6 7 -17 9 -24 4z
m179 -308 c89 -164 177 -325 195 -359 18 -33 83 -136 143 -228 61 -92 111
-178 111 -191 0 -32 -42 -38 -182 -25 -136 13 -235 30 -428 76 -225 54 -350
95 -350 115 0 9 43 117 96 240 113 263 148 357 199 537 21 72 41 132 45 132 5
0 81 -134 171 -297z"/>
<path d="M4150 2989 c-22 -44 -65 -119 -95 -166 -31 -47 -99 -168 -152 -267
-127 -242 -188 -344 -267 -450 -72 -97 -80 -126 -41 -152 65 -43 518 28 851
132 100 31 114 39 114 64 0 10 -29 80 -64 156 -88 193 -126 292 -190 499 -74
236 -85 265 -102 265 -8 0 -32 -36 -54 -81z m125 -133 c76 -246 107 -327 196
-523 43 -96 79 -179 79 -184 0 -12 -29 -26 -117 -53 -245 -77 -499 -126 -694
-133 -146 -6 -147 -6 -154 17 -6 17 2 36 34 79 115 158 156 226 306 511 48 91
111 202 141 248 30 46 73 120 95 165 35 68 43 78 51 63 6 -10 34 -96 63 -190z"/>
<path d="M5992 2900 c-89 -145 -105 -180 -81 -180 22 0 398 183 403 196 3 7
-2 20 -10 28 -24 24 -179 106 -200 106 -14 0 -44 -41 -112 -150z m151 124 c79
-40 157 -89 157 -100 0 -10 -381 -197 -388 -190 -6 6 180 306 190 306 5 0 23
-7 41 -16z"/>
<path d="M6595 2996 c-70 -38 -100 -59 -100 -72 0 -14 48 -40 200 -111 110
-51 206 -93 212 -93 7 0 13 6 13 13 0 15 -177 299 -193 309 -20 13 -28 10
-132 -46z m223 -113 c50 -81 90 -149 88 -150 -4 -4 -389 176 -399 186 -11 11
169 111 199 111 17 0 41 -32 112 -147z"/>
<path d="M6270 2827 c-410 -190 -435 -203 -471 -239 -44 -45 -67 -113 -110
-326 -17 -84 -51 -217 -76 -295 -94 -296 -125 -406 -149 -532 -13 -71 -31
-161 -40 -198 -9 -37 -13 -79 -10 -92 5 -19 67 -60 279 -187 558 -332 691
-408 718 -408 14 0 53 14 85 31 138 73 898 536 910 554 11 17 10 35 -10 115
-13 52 -40 171 -60 263 -21 93 -53 214 -72 270 -60 171 -100 315 -149 528 -53
229 -65 260 -109 293 -46 34 -569 276 -597 276 -13 0 -76 -24 -139 -53z m424
-83 c149 -70 283 -136 299 -146 42 -30 56 -67 103 -270 54 -231 82 -332 145
-519 27 -80 69 -237 93 -350 25 -112 50 -228 57 -257 12 -48 11 -54 -7 -71
-17 -16 -741 -453 -874 -528 -96 -54 -98 -54 -255 38 -430 251 -823 490 -829
504 -3 9 0 42 8 73 8 32 22 100 31 152 23 135 56 259 136 512 39 123 86 297
105 388 64 308 66 311 274 407 74 34 198 92 275 128 77 36 146 65 154 65 8 0
137 -57 285 -126z"/>
<path d="M7202 2487 c-7 -8 -1 -39 19 -97 17 -47 41 -132 55 -190 14 -58 63
-244 110 -413 47 -170 94 -354 104 -410 21 -120 27 -137 48 -137 24 0 137 121
236 253 98 130 224 332 301 480 45 87 49 97 34 112 -8 9 -85 42 -170 74 -216
81 -291 115 -506 227 -225 118 -219 116 -231 101z m214 -107 c202 -107 340
-168 552 -246 109 -40 132 -52 132 -69 0 -28 -127 -257 -226 -407 -139 -211
-322 -425 -343 -403 -5 6 -16 53 -25 106 -9 53 -46 204 -82 335 -36 131 -90
331 -119 444 -29 113 -63 232 -74 264 -23 65 -25 76 -13 76 5 0 94 -45 198
-100z"/>
<path d="M5505 2448 c-153 -86 -419 -210 -585 -272 -228 -86 -220 -83 -220
-104 0 -46 228 -432 356 -601 77 -102 183 -211 207 -211 16 0 41 26 51 55 4
11 23 92 41 180 42 195 59 260 140 535 117 396 132 450 127 455 -13 12 -52 0
-117 -37z m105 27 c0 -3 -32 -115 -71 -248 -126 -429 -157 -543 -189 -694 -41
-194 -57 -250 -74 -256 -30 -12 -153 114 -254 261 -130 188 -317 514 -309 536
3 6 40 24 83 40 218 81 416 166 574 248 96 50 184 97 195 104 20 14 45 19 45
9z"/>
<path d="M2317 2143 c-16 -16 -2 -57 79 -232 261 -562 388 -763 653 -1033 160
-164 175 -167 140 -23 -45 193 -60 404 -38 575 20 168 61 278 144 388 25 33
45 65 45 71 0 17 -30 27 -195 66 -82 19 -300 71 -484 115 -184 44 -335 80
-336 80 -1 0 -5 -3 -8 -7z m196 -52 c89 -21 309 -74 490 -117 180 -43 327 -81
327 -84 0 -4 -20 -33 -45 -65 -104 -134 -144 -270 -152 -517 -6 -174 2 -257
38 -430 11 -54 19 -103 17 -109 -6 -17 -200 180 -295 298 -95 118 -193 264
-261 391 -61 111 -300 614 -308 648 -8 32 -5 32 189 -15z"/>
<path d="M10030 2040 c-544 -131 -553 -134 -557 -145 -2 -6 19 -41 47 -79 61
-84 104 -170 127 -256 15 -54 18 -106 18 -305 -1 -214 -3 -251 -24 -340 -33
-148 -36 -175 -19 -175 20 0 240 226 320 330 149 193 291 428 413 685 103 217
159 351 152 369 -4 11 -18 16 -39 15 -18 -1 -215 -45 -438 -99z m462 66 c-5
-28 -86 -215 -161 -372 -123 -256 -270 -494 -419 -679 -82 -102 -292 -318
-292 -300 0 6 9 46 19 90 41 177 51 297 41 510 -11 229 -47 341 -154 475 -20
25 -36 50 -36 56 0 5 147 45 328 88 180 43 397 96 482 117 171 42 197 44 192
15z"/>
<path d="M4535 2017 l-45 -44 0 -92 c0 -64 4 -91 12 -91 6 0 35 24 64 54 59
60 71 97 57 167 -12 60 -33 62 -88 6z m75 -22 c2 -22 2 -50 1 -61 -1 -23 -86
-124 -103 -124 -6 0 -9 30 -6 81 3 81 3 81 46 121 24 22 47 36 52 32 4 -5 9
-27 10 -49z"/>
<path d="M8196 2018 c-30 -42 -20 -82 34 -147 54 -64 89 -92 91 -69 3 50 -4
145 -12 167 -25 66 -84 91 -113 49z m72 -8 c27 -25 42 -79 42 -150 l0 -54 -45
44 c-68 66 -86 122 -58 173 8 14 39 7 61 -13z"/>
<path d="M8402 1567 c-15 -18 -44 -124 -40 -149 2 -16 17 -26 57 -39 70 -24
98 -13 125 53 19 45 19 49 2 67 -9 10 -43 33 -75 50 -46 24 -61 28 -69 18z
m85 -43 c55 -31 63 -38 57 -57 -13 -45 -41 -82 -63 -85 -30 -5 -111 26 -111
41 0 11 23 93 35 125 6 17 11 16 82 -24z"/>
<path d="M4333 1530 c-68 -41 -81 -106 -30 -144 37 -27 103 -28 123 -1 17 23
18 90 3 134 -13 37 -47 42 -96 11z m82 -13 c4 -13 5 -48 3 -78 l-3 -54 -41 -3
c-45 -3 -94 26 -94 57 0 24 28 60 64 82 41 25 64 24 71 -4z"/>
<path d="M5386 1041 c-4 -5 -13 -49 -22 -97 -20 -116 -52 -208 -98 -276 -20
-31 -107 -127 -194 -214 -138 -140 -171 -168 -267 -225 -79 -47 -110 -71 -110
-85 0 -18 10 -19 170 -22 326 -6 714 75 1158 242 261 98 295 117 259 149 -25
22 -870 537 -881 537 -6 0 -12 -4 -15 -9z m449 -266 c231 -141 427 -263 435
-271 9 -9 11 -17 5 -23 -16 -14 -318 -130 -464 -178 -339 -110 -618 -163 -899
-170 -221 -6 -242 0 -168 44 162 96 207 132 339 267 213 216 257 290 292 482
19 105 22 117 32 111 5 -3 197 -121 428 -262z"/>
<path d="M6979 787 c-235 -144 -434 -268 -442 -276 -26 -21 -4 -47 60 -69 32
-11 166 -59 298 -107 353 -128 540 -175 815 -205 107 -12 348 -15 379 -5 43
13 22 41 -86 117 -173 121 -215 157 -333 283 -87 94 -120 137 -151 200 -39 80
-79 214 -79 266 0 36 -9 59 -24 59 -6 -1 -203 -119 -437 -263z m446 206 c23
-145 64 -259 126 -350 71 -103 249 -272 402 -380 81 -58 147 -109 147 -113 0
-35 -371 -20 -620 25 -173 32 -378 96 -765 238 -115 42 -170 67 -170 77 0 14
837 538 862 539 7 1 15 -16 18 -36z"/>
<path d="M4113 995 c-96 -65 -214 -200 -269 -307 -63 -124 -83 -297 -41 -358
63 -93 182 -91 267 6 51 59 108 189 132 300 32 155 17 377 -27 391 -6 2 -33
-13 -62 -32z m80 -20 c15 -51 12 -272 -6 -354 -23 -101 -95 -248 -146 -294
-22 -20 -57 -41 -79 -48 -34 -10 -45 -9 -85 9 -60 26 -87 70 -87 137 0 126 68
289 170 412 64 77 184 176 209 171 8 -2 19 -16 24 -33z"/>
<path d="M8626 1008 c-8 -13 -20 -64 -27 -113 -21 -172 20 -360 110 -498 54
-82 86 -112 141 -128 77 -23 155 19 181 98 15 47 6 164 -17 223 -32 80 -114
225 -155 272 -39 46 -191 168 -209 168 -5 0 -16 -10 -24 -22z m106 -48 c91
-69 144 -131 202 -236 63 -116 82 -166 91 -240 9 -78 -8 -139 -47 -175 -106
-100 -263 25 -340 271 -20 65 -23 96 -23 230 0 155 9 200 38 200 7 0 42 -23
79 -50z"/>
</g>
</svg>
